<svg width="101" height="100" viewBox="0 0 101 100" fill="none" xmlns="http://www.w3.org/2000/svg">
<g id="vuesax/twotone/profile-2user">
<g id="profile-2user">
<path id="Vector" d="M38.6647 45.2918C38.248 45.2502 37.748 45.2502 37.2897 45.2918C27.373 44.9585 19.498 36.8335 19.498 26.8335C19.498 16.6252 27.748 8.3335 37.998 8.3335C48.2064 8.3335 56.498 16.6252 56.498 26.8335C56.4564 36.8335 48.5814 44.9585 38.6647 45.2918Z" stroke="#E3E6E8" stroke-width="6.25" stroke-linecap="round" stroke-linejoin="round"/>
<path id="Vector_2" d="M68.8766 16.6665C76.96 16.6665 83.46 23.2082 83.46 31.2498C83.46 39.1248 77.21 45.5415 69.4183 45.8332C69.085 45.7915 68.71 45.7915 68.335 45.8332" stroke="#E3E6E8" stroke-width="6.25" stroke-linecap="round" stroke-linejoin="round"/>
<path id="Vector_3" d="M17.832 60.6665C7.7487 67.4165 7.7487 78.4165 17.832 85.1248C29.2904 92.7915 48.082 92.7915 59.5404 85.1248C69.6237 78.3748 69.6237 67.3748 59.5404 60.6665C48.1237 53.0415 29.332 53.0415 17.832 60.6665Z" stroke="#E3E6E8" stroke-width="6.25" stroke-linecap="round" stroke-linejoin="round"/>
<path id="Vector_4" d="M76.916 83.3335C79.916 82.7085 82.7493 81.5002 85.0827 79.7085C91.5827 74.8335 91.5827 66.7918 85.0827 61.9168C82.791 60.1668 79.9994 59.0002 77.041 58.3335" stroke="#E3E6E8" stroke-width="6.25" stroke-linecap="round" stroke-linejoin="round"/>
</g>
</g>
</svg>
