<svg width="36" height="36" viewBox="0 0 36 36" fill="none" xmlns="http://www.w3.org/2000/svg">
<g id="Log">
<path id="Union" fill-rule="evenodd" clip-rule="evenodd" d="M34.8 18C34.8 27.2784 27.2784 34.8 18 34.8C8.72162 34.8 1.2 27.2784 1.2 18C1.2 8.72162 8.72162 1.2 18 1.2C21.2971 1.2 24.3723 2.14979 26.9671 3.79068C25.3617 5.20739 24.7137 7.21924 24.5996 8.52011C24.4076 8.80811 24.3596 15.7601 24.3596 19.2001C24.4379 24.3601 20.4796 26.1601 18.1196 26.2801C13.1996 26.1601 12.0796 21.6401 12.1196 19.2001V8.52011C12.2156 7.56011 13.4396 7.32011 14.0396 7.32011V7.08011H8.3996V7.32011C9.8396 7.32011 10.2796 8.12011 10.3196 8.52011V19.2001C10.0316 22.8481 12.0396 25.0401 13.0796 25.6801C17.1116 28.4641 21.4796 26.8801 23.0396 25.6801C25.2476 24.4321 25.7996 21.0801 25.7996 19.5601V8.52011C25.9515 6.54538 26.6968 5.18156 27.6685 4.25929C31.9822 7.30016 34.8 12.321 34.8 18ZM28.6665 3.49936C33.1144 6.77664 36 12.0513 36 18C36 27.9411 27.9411 36 18 36C8.05887 36 0 27.9411 0 18C0 8.05887 8.05887 0 18 0C21.7069 0 25.1521 1.12052 28.0153 3.04134C29.1282 2.40728 30.5651 2.03781 32.3996 2.16011V2.52011C31.4267 2.48196 29.968 2.70945 28.6665 3.49936Z" fill="white"/>
</g>
</svg>
