<svg width="81" height="81" viewBox="0 0 81 81" fill="none" xmlns="http://www.w3.org/2000/svg">
<g id="vuesax/twotone/user-search">
<g id="user-search">
<path id="Vector" d="M40.4999 40.4996C49.7047 40.4996 57.1666 33.0377 57.1666 23.8329C57.1666 14.6282 49.7047 7.16626 40.4999 7.16626C31.2952 7.16626 23.8333 14.6282 23.8333 23.8329C23.8333 33.0377 31.2952 40.4996 40.4999 40.4996Z" stroke="#D0D4D9" stroke-width="4.46116" stroke-linecap="round" stroke-linejoin="round"/>
<path id="Vector_2" opacity="0.4" d="M11.8665 73.8333C11.8665 60.9333 24.6999 50.5 40.4999 50.5" stroke="#D0D4D9" stroke-width="4.46116" stroke-linecap="round" stroke-linejoin="round"/>
<path id="Vector_3" d="M61.1667 71.8334C67.0577 71.8334 71.8334 67.0577 71.8334 61.1667C71.8334 55.2757 67.0577 50.5 61.1667 50.5C55.2757 50.5 50.5 55.2757 50.5 61.1667C50.5 67.0577 55.2757 71.8334 61.1667 71.8334Z" stroke="#D0D4D9" stroke-width="4.46116" stroke-linecap="round" stroke-linejoin="round"/>
<path id="Vector_4" d="M73.8331 73.8331L70.4998 70.4998" stroke="#D0D4D9" stroke-width="4.46116" stroke-linecap="round" stroke-linejoin="round"/>
</g>
</g>
</svg>
