<svg width="20" height="20" viewBox="0 0 20 20" fill="none" xmlns="http://www.w3.org/2000/svg">
<g id="vuesax/bold/add-circle">
<g id="add-circle">
<path id="Vector" d="M9.99984 1.6665C5.40817 1.6665 1.6665 5.40817 1.6665 9.99984C1.6665 14.5915 5.40817 18.3332 9.99984 18.3332C14.5915 18.3332 18.3332 14.5915 18.3332 9.99984C18.3332 5.40817 14.5915 1.6665 9.99984 1.6665ZM13.3332 10.6248H10.6248V13.3332C10.6248 13.6748 10.3415 13.9582 9.99984 13.9582C9.65817 13.9582 9.37484 13.6748 9.37484 13.3332V10.6248H6.6665C6.32484 10.6248 6.0415 10.3415 6.0415 9.99984C6.0415 9.65817 6.32484 9.37484 6.6665 9.37484H9.37484V6.6665C9.37484 6.32484 9.65817 6.0415 9.99984 6.0415C10.3415 6.0415 10.6248 6.32484 10.6248 6.6665V9.37484H13.3332C13.6748 9.37484 13.9582 9.65817 13.9582 9.99984C13.9582 10.3415 13.6748 10.6248 13.3332 10.6248Z" fill="white"/>
</g>
</g>
</svg>
