<svg width="28" height="28" viewBox="0 0 28 28" fill="none" xmlns="http://www.w3.org/2000/svg">
<g id="vuesax/bulk/arrow-swap-horizontal">
<g id="arrow-swap-horizontal">
<path id="Vector" opacity="0.15" d="M9.11183 2.33333H18.8768C23.1352 2.33333 25.6668 4.86499 25.6668 9.11166V18.8767C25.6668 23.1233 23.1352 25.655 18.8885 25.655H9.11183C4.86516 25.6667 2.3335 23.135 2.3335 18.8883V9.11166C2.3335 4.86499 4.86516 2.33333 9.11183 2.33333Z" fill="#FFA118"/>
<path id="Vector_2" d="M20.6382 15.7267C20.5448 15.5167 20.3815 15.3417 20.1598 15.2483C20.0548 15.2017 19.9382 15.1783 19.8215 15.1783H8.1665C7.68817 15.1783 7.2915 15.575 7.2915 16.0533C7.2915 16.5317 7.68817 16.9283 8.1665 16.9283H17.7215L15.7732 18.8767C15.4348 19.215 15.4348 19.775 15.7732 20.1133C15.9482 20.2883 16.1698 20.37 16.3915 20.37C16.6132 20.37 16.8348 20.2883 17.0098 20.1133L20.4515 16.6717C20.5332 16.59 20.5915 16.4967 20.6382 16.3917C20.7315 16.17 20.7315 15.9367 20.6382 15.7267Z" fill="#FFA118"/>
<path id="Vector_3" d="M7.3615 12.2733C7.45484 12.4833 7.61817 12.6583 7.83984 12.7517C7.94484 12.7983 8.04984 12.8217 8.1665 12.8217H19.8332C20.3115 12.8217 20.7082 12.425 20.7082 11.9467C20.7082 11.4683 20.3115 11.0717 19.8332 11.0717H10.2782L12.2265 9.12334C12.5648 8.785 12.5648 8.225 12.2265 7.88667C11.8882 7.54834 11.3282 7.54834 10.9898 7.88667L7.54817 11.3283C7.4665 11.41 7.40817 11.5033 7.3615 11.6083C7.26817 11.83 7.26817 12.0633 7.3615 12.2733Z" fill="#FFA118"/>
</g>
</g>
</svg>
