<svg width="20" height="20" viewBox="0 0 20 20" fill="none" xmlns="http://www.w3.org/2000/svg">
<g id="vuesax/bulk/arrow-square-down">
<g id="arrow-square-down">
<path id="Vector" d="M6.5085 18.3335H13.4918C16.5252 18.3335 18.3335 16.5252 18.3335 13.4918V6.51683C18.3335 3.47516 16.5252 1.66683 13.4918 1.66683H6.51683C3.4835 1.66683 1.67516 3.47516 1.67516 6.5085V13.4918C1.66683 16.5252 3.47516 18.3335 6.5085 18.3335Z" fill="#E9B1B1"/>
<path id="Vector_2" d="M9.99987 7.57507C10.1582 7.57507 10.3165 7.6334 10.4415 7.7584L13.3832 10.7001C13.6249 10.9417 13.6249 11.3417 13.3832 11.5834C13.1415 11.8251 12.7415 11.8251 12.4999 11.5834L9.99987 9.0834L7.49987 11.5834C7.2582 11.8251 6.8582 11.8251 6.61654 11.5834C6.37487 11.3417 6.37487 10.9417 6.61654 10.7001L9.5582 7.7584C9.6832 7.6334 9.84154 7.57507 9.99987 7.57507Z" fill="#981D1D"/>
</g>
</g>
</svg>
