<svg width="20" height="20" viewBox="0 0 20 20" fill="none" xmlns="http://www.w3.org/2000/svg">
<g id="vuesax/bulk/arrow-square-down">
<g id="arrow-square-down">
<path id="Vector" opacity="0.4" d="M13.4915 1.6665H6.50817C3.47484 1.6665 1.6665 3.47484 1.6665 6.50817V13.4832C1.6665 16.5248 3.47484 18.3332 6.50817 18.3332H13.4832C16.5165 18.3332 18.3248 16.5248 18.3248 13.4915V6.50817C18.3332 3.47484 16.5248 1.6665 13.4915 1.6665Z" fill="#23292E"/>
<path id="Vector_2" d="M10.0001 12.4249C9.8418 12.4249 9.68346 12.3666 9.55846 12.2416L6.6168 9.29993C6.37513 9.05827 6.37513 8.65827 6.6168 8.4166C6.85846 8.17493 7.25846 8.17493 7.50013 8.4166L10.0001 10.9166L12.5001 8.4166C12.7418 8.17493 13.1418 8.17493 13.3835 8.4166C13.6251 8.65827 13.6251 9.05827 13.3835 9.29993L10.4418 12.2416C10.3168 12.3666 10.1585 12.4249 10.0001 12.4249Z" fill="#23292E"/>
</g>
</g>
</svg>
