<svg width="16" height="16" viewBox="0 0 16 16" fill="none" xmlns="http://www.w3.org/2000/svg">
<g id="vuesax/linear/box">
<g id="box">
<g id="Group">
<g id="Group_2">
<path id="Vector" d="M2.11353 4.96021L8.00018 8.36686L13.8468 4.98018" stroke="#23292E" stroke-linecap="round" stroke-linejoin="round"/>
<path id="Vector_2" d="M8.00024 14.4065V8.35986" stroke="#23292E" stroke-linecap="round" stroke-linejoin="round"/>
</g>
<path id="Vector_3" d="M6.62004 1.65325L3.06004 3.63327C2.25337 4.07994 1.59338 5.19993 1.59338 6.11993V9.88661C1.59338 10.8066 2.25337 11.9266 3.06004 12.3733L6.62004 14.3533C7.38004 14.7733 8.6267 14.7733 9.3867 14.3533L12.9467 12.3733C13.7534 11.9266 14.4134 10.8066 14.4134 9.88661V6.11993C14.4134 5.19993 13.7534 4.07994 12.9467 3.63327L9.3867 1.65325C8.62003 1.22659 7.38004 1.22659 6.62004 1.65325Z" stroke="#23292E" stroke-linecap="round" stroke-linejoin="round"/>
</g>
<path id="Vector_4" d="M11.3331 8.8265V6.38652L5.00647 2.73315" stroke="#23292E" stroke-linecap="round" stroke-linejoin="round"/>
</g>
</g>
</svg>
