<svg width="20" height="20" viewBox="0 0 20 20" fill="none" xmlns="http://www.w3.org/2000/svg">
<g id="vuesax/bulk/box">
<g id="box">
<path id="Vector" opacity="0.4" d="M16.75 5.78316C16.75 6.23316 16.5083 6.64146 16.125 6.8498L14.675 7.63313L13.4417 8.2915L10.8833 9.67481C10.6083 9.82481 10.3083 9.89983 10 9.89983C9.69167 9.89983 9.39167 9.82481 9.11667 9.67481L3.875 6.8498C3.49167 6.64146 3.25 6.23316 3.25 5.78316C3.25 5.33316 3.49167 4.9248 3.875 4.71647L5.51667 3.83313L6.82501 3.12482L9.11667 1.8915C9.66667 1.5915 10.3333 1.5915 10.8833 1.8915L16.125 4.71647C16.5083 4.9248 16.75 5.33316 16.75 5.78316Z" fill="#981D1D"/>
<path id="Vector_2" opacity="0.4" d="M8.24993 10.6585L3.37492 8.21682C2.99992 8.02515 2.5666 8.05015 2.20826 8.26682C1.84993 8.48348 1.6416 8.86684 1.6416 9.28351V13.8918C1.6416 14.6918 2.08325 15.4085 2.79992 15.7668L7.67493 18.2002C7.84159 18.2835 8.02494 18.3252 8.20827 18.3252C8.42494 18.3252 8.64161 18.2668 8.83327 18.1418C9.19161 17.9252 9.39993 17.5418 9.39993 17.1252V12.5168C9.40827 11.7335 8.9666 11.0168 8.24993 10.6585Z" fill="#981D1D"/>
<path id="Vector_3" opacity="0.4" d="M18.3585 9.29172V13.9C18.3585 14.6917 17.9168 15.4083 17.2001 15.7667L12.3251 18.2083C12.1585 18.2917 11.9751 18.3334 11.7918 18.3334C11.5751 18.3334 11.3585 18.2751 11.1585 18.1501C10.8085 17.9334 10.5918 17.55 10.5918 17.1334V12.5333C10.5918 11.7333 11.0335 11.0167 11.7501 10.6583L13.5418 9.76667L14.7918 9.14167L16.6251 8.22502C17.0001 8.03336 17.4335 8.05002 17.7918 8.27502C18.1418 8.49169 18.3585 8.87505 18.3585 9.29172Z" fill="#981D1D"/>
<path id="Vector_4" d="M14.6749 7.63331L13.4416 8.29168L5.5166 3.83331L6.82494 3.125L14.4749 7.44166C14.5583 7.49166 14.6249 7.55831 14.6749 7.63331Z" fill="#981D1D"/>
<path id="Vector_5" d="M14.7915 9.1416V11.0333C14.7915 11.375 14.5082 11.6583 14.1665 11.6583C13.8248 11.6583 13.5415 11.375 13.5415 11.0333V9.7666L14.7915 9.1416Z" fill="#981D1D"/>
</g>
</g>
</svg>
