<svg width="20" height="20" viewBox="0 0 20 20" fill="none" xmlns="http://www.w3.org/2000/svg">
<g id="box">
<g id="Group">
<g id="Group_2">
<path id="Vector" d="M2.6416 6.19922L9.99992 10.4575L17.3082 6.22419" stroke="#98A5AF" stroke-width="1.5" stroke-linecap="round" stroke-linejoin="round"/>
<path id="Vector_2" d="M10 18.0076V10.4492" stroke="#98A5AF" stroke-width="1.5" stroke-linecap="round" stroke-linejoin="round"/>
</g>
<path id="Vector_3" d="M8.27453 2.06602L3.82453 4.54104C2.8162 5.09938 1.99121 6.49936 1.99121 7.64936V12.3577C1.99121 13.5077 2.8162 14.9077 3.82453 15.466L8.27453 17.9411C9.22453 18.4661 10.7829 18.4661 11.7329 17.9411L16.1829 15.466C17.1912 14.9077 18.0162 13.5077 18.0162 12.3577V7.64936C18.0162 6.49936 17.1912 5.09938 16.1829 4.54104L11.7329 2.06602C10.7745 1.53268 9.22453 1.53268 8.27453 2.06602Z" stroke="#98A5AF" stroke-width="1.5" stroke-linecap="round" stroke-linejoin="round"/>
</g>
<path id="Vector_4" d="M14.1666 11.0327V7.98272L6.2583 3.41602" stroke="#98A5AF" stroke-width="1.5" stroke-linecap="round" stroke-linejoin="round"/>
</g>
</svg>
