<svg width="14" height="14" viewBox="0 0 14 14" fill="none" xmlns="http://www.w3.org/2000/svg">
<g id="vuesax/twotone/box">
<g id="box">
<g id="Group 139">
<path id="Vector" d="M1.84961 4.34033L7.00044 7.32116L12.1163 4.35781" stroke="#E9B815" stroke-width="0.875" stroke-linecap="round" stroke-linejoin="round"/>
<path id="Vector_2" d="M7 12.606V7.31519" stroke="#E9B815" stroke-width="0.875" stroke-linecap="round" stroke-linejoin="round"/>
<path id="Vector_3" d="M5.79285 1.44675L2.67785 3.17927C1.97202 3.5701 1.39453 4.55009 1.39453 5.35509V8.65094C1.39453 9.45594 1.97202 10.4359 2.67785 10.8268L5.79285 12.5593C6.45785 12.9268 7.54868 12.9268 8.21368 12.5593L11.3287 10.8268C12.0345 10.4359 12.612 9.45594 12.612 8.65094V5.35509C12.612 4.55009 12.0345 3.5701 11.3287 3.17927L8.21368 1.44675C7.54285 1.07341 6.45785 1.07341 5.79285 1.44675Z" stroke="#E9B815" stroke-width="0.875" stroke-linecap="round" stroke-linejoin="round"/>
</g>
<path id="Vector_4" d="M9.91669 7.72352V5.58854L4.38086 2.39185" stroke="#E9B815" stroke-width="0.875" stroke-linecap="round" stroke-linejoin="round"/>
</g>
</g>
</svg>
