<svg width="20" height="20" viewBox="0 0 20 20" fill="none" xmlns="http://www.w3.org/2000/svg">
<g id="vuesax/bulk/box">
<g id="box">
<path id="Vector" opacity="0.4" d="M16.75 5.78364C16.75 6.23364 16.5083 6.64195 16.125 6.85028L14.675 7.63362L13.4417 8.29199L10.8833 9.6753C10.6083 9.8253 10.3083 9.90031 10 9.90031C9.69167 9.90031 9.39167 9.8253 9.11667 9.6753L3.875 6.85028C3.49167 6.64195 3.25 6.23364 3.25 5.78364C3.25 5.33364 3.49167 4.92529 3.875 4.71695L5.51667 3.83362L6.82501 3.12531L9.11667 1.89199C9.66667 1.59199 10.3333 1.59199 10.8833 1.89199L16.125 4.71695C16.5083 4.92529 16.75 5.33364 16.75 5.78364Z" fill="white"/>
<path id="Vector_2" opacity="0.4" d="M8.24993 10.658L3.37492 8.21633C2.99992 8.02466 2.5666 8.04966 2.20826 8.26633C1.84993 8.48299 1.6416 8.86635 1.6416 9.28302V13.8913C1.6416 14.6913 2.08325 15.408 2.79992 15.7663L7.67493 18.1997C7.84159 18.283 8.02494 18.3247 8.20827 18.3247C8.42494 18.3247 8.64161 18.2664 8.83327 18.1414C9.19161 17.9247 9.39993 17.5413 9.39993 17.1247V12.5164C9.40827 11.733 8.9666 11.0163 8.24993 10.658Z" fill="white"/>
<path id="Vector_3" opacity="0.4" d="M18.3585 9.29172V13.9C18.3585 14.6917 17.9168 15.4083 17.2001 15.7667L12.3251 18.2083C12.1585 18.2917 11.9751 18.3334 11.7918 18.3334C11.5751 18.3334 11.3585 18.2751 11.1585 18.1501C10.8085 17.9334 10.5918 17.55 10.5918 17.1334V12.5333C10.5918 11.7333 11.0335 11.0167 11.7501 10.6583L13.5418 9.76667L14.7918 9.14167L16.6251 8.22502C17.0001 8.03336 17.4335 8.05002 17.7918 8.27502C18.1418 8.49169 18.3585 8.87505 18.3585 9.29172Z" fill="white"/>
<path id="Vector_4" d="M14.6749 7.63331L13.4416 8.29168L5.5166 3.83331L6.82494 3.125L14.4749 7.44166C14.5583 7.49166 14.6249 7.55831 14.6749 7.63331Z" fill="white"/>
<path id="Vector_5" d="M14.792 9.1416V11.0333C14.792 11.375 14.5087 11.6583 14.167 11.6583C13.8253 11.6583 13.542 11.375 13.542 11.0333V9.7666L14.792 9.1416Z" fill="white"/>
</g>
</g>
</svg>
