<svg width="20" height="20" viewBox="0 0 20 20" fill="none" xmlns="http://www.w3.org/2000/svg">
<g id="vuesax/bulk/category-2">
<g id="category-2">
<path id="Vector" opacity="0.4" d="M15.5585 1.66675H13.9752C12.1585 1.66675 11.2002 2.62508 11.2002 4.44175V6.02508C11.2002 7.84175 12.1585 8.80008 13.9752 8.80008H15.5585C17.3752 8.80008 18.3335 7.84175 18.3335 6.02508V4.44175C18.3335 2.62508 17.3752 1.66675 15.5585 1.66675Z" fill="white"/>
<path id="Vector_2" opacity="0.4" d="M6.03366 11.1917H4.45033C2.62533 11.1917 1.66699 12.15 1.66699 13.9667V15.55C1.66699 17.375 2.62533 18.3333 4.44199 18.3333H6.02533C7.84199 18.3333 8.80033 17.375 8.80033 15.5583V13.975C8.80866 12.15 7.85033 11.1917 6.03366 11.1917Z" fill="white"/>
<path id="Vector_3" d="M5.24199 8.81675C7.21641 8.81675 8.81699 7.21617 8.81699 5.24175C8.81699 3.26733 7.21641 1.66675 5.24199 1.66675C3.26757 1.66675 1.66699 3.26733 1.66699 5.24175C1.66699 7.21617 3.26757 8.81675 5.24199 8.81675Z" fill="white"/>
<path id="Vector_4" d="M14.7586 18.3333C16.733 18.3333 18.3336 16.7328 18.3336 14.7583C18.3336 12.7839 16.733 11.1833 14.7586 11.1833C12.7842 11.1833 11.1836 12.7839 11.1836 14.7583C11.1836 16.7328 12.7842 18.3333 14.7586 18.3333Z" fill="white"/>
</g>
</g>
</svg>
