<svg width="61" height="60" viewBox="0 0 61 60" fill="none" xmlns="http://www.w3.org/2000/svg">
<g id="vuesax/bulk/clipboard-text">
<g id="clipboard-text">
<path id="Vector" opacity="0.4" d="M41.1001 9.125H19.9001C13.7251 9.125 8.7251 14.15 8.7251 20.3V43.825C8.7251 49.975 13.7501 55 19.9001 55H41.0751C47.2501 55 52.2501 49.975 52.2501 43.825V20.3C52.2751 14.125 47.2501 9.125 41.1001 9.125Z" fill="#D0D4D9"/>
<path id="Vector_2" d="M36.3744 5H24.6244C22.0244 5 19.8994 7.1 19.8994 9.7V12.05C19.8994 14.65 21.9994 16.75 24.5994 16.75H36.3744C38.9744 16.75 41.0744 14.65 41.0744 12.05V9.7C41.0994 7.1 38.9744 5 36.3744 5Z" fill="#D0D4D9"/>
<path id="Vector_3" d="M38 32.375H20.5C19.475 32.375 18.625 31.525 18.625 30.5C18.625 29.475 19.475 28.625 20.5 28.625H38C39.025 28.625 39.875 29.475 39.875 30.5C39.875 31.525 39.025 32.375 38 32.375Z" fill="#D0D4D9"/>
<path id="Vector_4" d="M31.45 42.375H20.5C19.475 42.375 18.625 41.525 18.625 40.5C18.625 39.475 19.475 38.625 20.5 38.625H31.45C32.475 38.625 33.325 39.475 33.325 40.5C33.325 41.525 32.475 42.375 31.45 42.375Z" fill="#D0D4D9"/>
</g>
</g>
</svg>
