<svg width="28" height="28" viewBox="0 0 28 28" fill="none" xmlns="http://www.w3.org/2000/svg">
<g id="vuesax/bulk/close-square">
<g id="close-square">
<path id="Vector" opacity="0.4" d="M18.8885 2.33333H9.11183C4.86516 2.33333 2.3335 4.86499 2.3335 9.11166V18.8767C2.3335 23.135 4.86516 25.6667 9.11183 25.6667H18.8768C23.1235 25.6667 25.6552 23.135 25.6552 18.8883V9.11166C25.6668 4.86499 23.1352 2.33333 18.8885 2.33333Z" fill="#D60A0A"/>
<path id="Vector_2" d="M15.2366 14L17.9199 11.3167C18.2583 10.9783 18.2583 10.4183 17.9199 10.08C17.5816 9.74166 17.0216 9.74166 16.6833 10.08L13.9999 12.7633L11.3166 10.08C10.9783 9.74166 10.4183 9.74166 10.0799 10.08C9.74159 10.4183 9.74159 10.9783 10.0799 11.3167L12.7633 14L10.0799 16.6833C9.74159 17.0217 9.74159 17.5817 10.0799 17.92C10.2549 18.095 10.4766 18.1767 10.6983 18.1767C10.9199 18.1767 11.1416 18.095 11.3166 17.92L13.9999 15.2367L16.6833 17.92C16.8583 18.095 17.0799 18.1767 17.3016 18.1767C17.5233 18.1767 17.7449 18.095 17.9199 17.92C18.2583 17.5817 18.2583 17.0217 17.9199 16.6833L15.2366 14Z" fill="#D60A0A"/>
</g>
</g>
</svg>
