<svg width="90" height="90" viewBox="0 0 90 90" fill="none" xmlns="http://www.w3.org/2000/svg">
<g id="vuesax/bold/close-circle">
<g id="close-circle">
<path id="Vector" d="M45 7.5C24.3375 7.5 7.5 24.3375 7.5 45C7.5 65.6625 24.3375 82.5 45 82.5C65.6625 82.5 82.5 65.6625 82.5 45C82.5 24.3375 65.6625 7.5 45 7.5ZM57.6 53.625C58.6875 54.7125 58.6875 56.5125 57.6 57.6C57.0375 58.1625 56.325 58.425 55.6125 58.425C54.9 58.425 54.1875 58.1625 53.625 57.6L45 48.975L36.375 57.6C35.8125 58.1625 35.1 58.425 34.3875 58.425C33.675 58.425 32.9625 58.1625 32.4 57.6C31.3125 56.5125 31.3125 54.7125 32.4 53.625L41.025 45L32.4 36.375C31.3125 35.2875 31.3125 33.4875 32.4 32.4C33.4875 31.3125 35.2875 31.3125 36.375 32.4L45 41.025L53.625 32.4C54.7125 31.3125 56.5125 31.3125 57.6 32.4C58.6875 33.4875 58.6875 35.2875 57.6 36.375L48.975 45L57.6 53.625Z" fill="white"/>
</g>
</g>
</svg>
