<svg width="152" height="152" viewBox="0 0 152 152" fill="none" xmlns="http://www.w3.org/2000/svg">
<g id="vuesax/twotone/convert-3d-cube">
<g id="convert-3d-cube">
<path id="Vector" opacity="0.4" d="M139.333 95C139.333 119.51 119.51 139.333 95 139.333L101.65 128.25" stroke="#D0D4D9" stroke-width="9.5" stroke-linecap="round" stroke-linejoin="round"/>
<path id="Vector_2" opacity="0.4" d="M12.6665 57C12.6665 32.49 32.4898 12.6667 56.9998 12.6667L50.3498 23.75" stroke="#D0D4D9" stroke-width="9.5" stroke-linecap="round" stroke-linejoin="round"/>
<g id="Group">
<g id="Group_2">
<path id="Vector_3" d="M86.7681 28.1834L111.975 42.75L136.928 28.2468" stroke="#D0D4D9" stroke-width="9.5" stroke-linecap="round" stroke-linejoin="round"/>
<path id="Vector_4" d="M111.975 68.5267V42.6866" stroke="#D0D4D9" stroke-width="9.5" stroke-linecap="round" stroke-linejoin="round"/>
</g>
<path id="Vector_5" d="M106.021 13.9967L90.8207 22.4197C87.4007 24.3197 84.5508 29.133 84.5508 33.0597V49.1466C84.5508 53.0733 87.3374 57.8865 90.8207 59.7865L106.021 68.21C109.251 70.0466 114.571 70.0466 117.864 68.21L133.064 59.7865C136.484 57.8865 139.334 53.0733 139.334 49.1466V33.0597C139.334 29.133 136.547 24.3197 133.064 22.4197L117.864 13.9967C114.634 12.2233 109.314 12.2233 106.021 13.9967Z" stroke="#D0D4D9" stroke-width="9.5" stroke-linecap="round" stroke-linejoin="round"/>
</g>
<g id="Group_3">
<g id="Group_4">
<path id="Vector_6" d="M14.8838 97.8501L40.0271 112.417L65.0438 97.9135" stroke="#D0D4D9" stroke-width="9.5" stroke-linecap="round" stroke-linejoin="round"/>
<path id="Vector_7" d="M40.0288 138.193V112.353" stroke="#D0D4D9" stroke-width="9.5" stroke-linecap="round" stroke-linejoin="round"/>
</g>
<path id="Vector_8" d="M34.1365 83.6633L18.9365 92.0864C15.5165 93.9864 12.6665 98.7997 12.6665 102.726V118.813C12.6665 122.74 15.4532 127.553 18.9365 129.453L34.1365 137.877C37.3665 139.713 42.6865 139.713 45.9798 137.877L61.1799 129.453C64.5999 127.553 67.4498 122.74 67.4498 118.813V102.726C67.4498 98.7997 64.6632 93.9864 61.1799 92.0864L45.9798 83.6633C42.6865 81.89 37.3665 81.89 34.1365 83.6633Z" stroke="#D0D4D9" stroke-width="9.5" stroke-linecap="round" stroke-linejoin="round"/>
</g>
</g>
</g>
</svg>
