<svg width="14" height="14" viewBox="0 0 14 14" fill="none" xmlns="http://www.w3.org/2000/svg">
<g id="vuesax/twotone/box">
<g id="box">
<g id="Group 139">
<path id="Vector" d="M1.84912 4.34009L6.99995 7.32091L12.1158 4.35757" stroke="#008DD5" stroke-width="0.875" stroke-linecap="round" stroke-linejoin="round"/>
<path id="Vector_2" d="M7 12.6058V7.31494" stroke="#008DD5" stroke-width="0.875" stroke-linecap="round" stroke-linejoin="round"/>
<path id="Vector_3" d="M5.79236 1.44675L2.67737 3.17927C1.97153 3.5701 1.39404 4.55009 1.39404 5.35509V8.65094C1.39404 9.45594 1.97153 10.4359 2.67737 10.8268L5.79236 12.5593C6.45736 12.9268 7.54819 12.9268 8.21319 12.5593L11.3282 10.8268C12.034 10.4359 12.6115 9.45594 12.6115 8.65094V5.35509C12.6115 4.55009 12.034 3.5701 11.3282 3.17927L8.21319 1.44675C7.54236 1.07341 6.45736 1.07341 5.79236 1.44675Z" stroke="#008DD5" stroke-width="0.875" stroke-linecap="round" stroke-linejoin="round"/>
</g>
<path id="Vector_4" d="M9.91669 7.72352V5.58854L4.38086 2.39185" stroke="#008DD5" stroke-width="0.875" stroke-linecap="round" stroke-linejoin="round"/>
</g>
</g>
</svg>
