<svg width="20" height="20" viewBox="0 0 20 20" fill="none" xmlns="http://www.w3.org/2000/svg">
<g id="vuesax/outline/category-2">
<g id="category-2">
<path id="Vector" d="M15.8332 8.95835H14.1665C12.1498 8.95835 11.0415 7.85002 11.0415 5.83335V4.16669C11.0415 2.15002 12.1498 1.04169 14.1665 1.04169H15.8332C17.8498 1.04169 18.9582 2.15002 18.9582 4.16669V5.83335C18.9582 7.85002 17.8498 8.95835 15.8332 8.95835ZM14.1665 2.29169C12.8498 2.29169 12.2915 2.85002 12.2915 4.16669V5.83335C12.2915 7.15002 12.8498 7.70835 14.1665 7.70835H15.8332C17.1498 7.70835 17.7082 7.15002 17.7082 5.83335V4.16669C17.7082 2.85002 17.1498 2.29169 15.8332 2.29169H14.1665Z" fill="#98A5AF"/>
<path id="Vector_2" d="M5.83317 18.9584H4.1665C2.14984 18.9584 1.0415 17.85 1.0415 15.8334V14.1667C1.0415 12.15 2.14984 11.0417 4.1665 11.0417H5.83317C7.84984 11.0417 8.95817 12.15 8.95817 14.1667V15.8334C8.95817 17.85 7.84984 18.9584 5.83317 18.9584ZM4.1665 12.2917C2.84984 12.2917 2.2915 12.85 2.2915 14.1667V15.8334C2.2915 17.15 2.84984 17.7084 4.1665 17.7084H5.83317C7.14984 17.7084 7.70817 17.15 7.70817 15.8334V14.1667C7.70817 12.85 7.14984 12.2917 5.83317 12.2917H4.1665Z" fill="#98A5AF"/>
<path id="Vector_3" d="M4.99984 8.95835C2.8165 8.95835 1.0415 7.18335 1.0415 5.00002C1.0415 2.81669 2.8165 1.04169 4.99984 1.04169C7.18317 1.04169 8.95817 2.81669 8.95817 5.00002C8.95817 7.18335 7.18317 8.95835 4.99984 8.95835ZM4.99984 2.29169C3.50817 2.29169 2.2915 3.50835 2.2915 5.00002C2.2915 6.49169 3.50817 7.70835 4.99984 7.70835C6.4915 7.70835 7.70817 6.49169 7.70817 5.00002C7.70817 3.50835 6.4915 2.29169 4.99984 2.29169Z" fill="#98A5AF"/>
<path id="Vector_4" d="M14.9998 18.9584C12.8165 18.9584 11.0415 17.1834 11.0415 15C11.0415 12.8167 12.8165 11.0417 14.9998 11.0417C17.1832 11.0417 18.9582 12.8167 18.9582 15C18.9582 17.1834 17.1832 18.9584 14.9998 18.9584ZM14.9998 12.2917C13.5082 12.2917 12.2915 13.5084 12.2915 15C12.2915 16.4917 13.5082 17.7084 14.9998 17.7084C16.4915 17.7084 17.7082 16.4917 17.7082 15C17.7082 13.5084 16.4915 12.2917 14.9998 12.2917Z" fill="#98A5AF"/>
</g>
</g>
</svg>
