<svg width="20" height="20" viewBox="0 0 20 20" fill="none" xmlns="http://www.w3.org/2000/svg">
<g id="vuesax/bulk/category-2">
<g id="category-2">
<path id="Vector" opacity="0.4" d="M15.5585 1.66675H13.9752C12.1585 1.66675 11.2002 2.62508 11.2002 4.44175V6.02508C11.2002 7.84175 12.1585 8.80008 13.9752 8.80008H15.5585C17.3752 8.80008 18.3335 7.84175 18.3335 6.02508V4.44175C18.3335 2.62508 17.3752 1.66675 15.5585 1.66675Z" fill="#981D1D"/>
<path id="Vector_2" opacity="0.4" d="M6.03317 11.1917H4.44984C2.62484 11.1917 1.6665 12.15 1.6665 13.9667V15.55C1.6665 17.375 2.62484 18.3333 4.4415 18.3333H6.02484C7.8415 18.3333 8.79984 17.375 8.79984 15.5583V13.975C8.80817 12.15 7.84984 11.1917 6.03317 11.1917Z" fill="#981D1D"/>
<path id="Vector_3" d="M5.2415 8.81675C7.21592 8.81675 8.8165 7.21617 8.8165 5.24175C8.8165 3.26733 7.21592 1.66675 5.2415 1.66675C3.26709 1.66675 1.6665 3.26733 1.6665 5.24175C1.6665 7.21617 3.26709 8.81675 5.2415 8.81675Z" fill="#981D1D"/>
<path id="Vector_4" d="M14.7581 18.3333C16.7325 18.3333 18.3331 16.7328 18.3331 14.7583C18.3331 12.7839 16.7325 11.1833 14.7581 11.1833C12.7837 11.1833 11.1831 12.7839 11.1831 14.7583C11.1831 16.7328 12.7837 18.3333 14.7581 18.3333Z" fill="#981D1D"/>
</g>
</g>
</svg>
