<svg width="136" height="136" viewBox="0 0 136 136" fill="none" xmlns="http://www.w3.org/2000/svg">
<g filter="url(#filter0_i_710_72654)">
<rect width="136" height="136" rx="30" fill="#FFA118"/>
<circle cx="68" cy="68" r="22.5" fill="#FFA118"/>
<path d="M68 30.5C47.3375 30.5 30.5 47.3375 30.5 68C30.5 88.6625 47.3375 105.5 68 105.5C88.6625 105.5 105.5 88.6625 105.5 68C105.5 47.3375 88.6625 30.5 68 30.5ZM80.6 76.625C81.6875 77.7125 81.6875 79.5125 80.6 80.6C80.0375 81.1625 79.325 81.425 78.6125 81.425C77.9 81.425 77.1875 81.1625 76.625 80.6L68 71.975L59.375 80.6C58.8125 81.1625 58.1 81.425 57.3875 81.425C56.675 81.425 55.9625 81.1625 55.4 80.6C54.3125 79.5125 54.3125 77.7125 55.4 76.625L64.025 68L55.4 59.375C54.3125 58.2875 54.3125 56.4875 55.4 55.4C56.4875 54.3125 58.2875 54.3125 59.375 55.4L68 64.025L76.625 55.4C77.7125 54.3125 79.5125 54.3125 80.6 55.4C81.6875 56.4875 81.6875 58.2875 80.6 59.375L71.975 68L80.6 76.625Z" fill="white"/>
</g>
<defs>
<filter id="filter0_i_710_72654" x="0" y="0" width="136" height="136" filterUnits="userSpaceOnUse" color-interpolation-filters="sRGB">
<feFlood flood-opacity="0" result="BackgroundImageFix"/>
<feBlend mode="normal" in="SourceGraphic" in2="BackgroundImageFix" result="shape"/>
<feColorMatrix in="SourceAlpha" type="matrix" values="0 0 0 0 0 0 0 0 0 0 0 0 0 0 0 0 0 0 127 0" result="hardAlpha"/>
<feOffset/>
<feGaussianBlur stdDeviation="35.25"/>
<feComposite in2="hardAlpha" operator="arithmetic" k2="-1" k3="1"/>
<feColorMatrix type="matrix" values="0 0 0 0 1 0 0 0 0 1 0 0 0 0 1 0 0 0 0.56 0"/>
<feBlend mode="normal" in2="shape" result="effect1_innerShadow_710_72654"/>
</filter>
</defs>
</svg>
