<svg width="15" height="14" viewBox="0 0 15 14" fill="none" xmlns="http://www.w3.org/2000/svg">
<g id="vuesax/bold/edit-2">
<path id="Vector" d="M12.6501 1.51943C11.1359 0.00528467 9.653 -0.0337397 8.09983 1.51943L7.15544 2.46382C7.07739 2.54187 7.04617 2.66675 7.07739 2.77602C7.67056 4.84431 9.3252 6.49894 11.3935 7.09211C11.4247 7.09992 11.4559 7.10772 11.4872 7.10772C11.573 7.10772 11.6511 7.0765 11.7135 7.01407L12.6501 6.06967C13.4228 5.3048 13.7974 4.56333 13.7974 3.81407C13.8052 3.04138 13.4306 2.29211 12.6501 1.51943Z" fill="white"/>
<path id="Vector_2" d="M9.98827 7.80246C9.76193 7.6932 9.54339 7.58393 9.33266 7.45905C9.16095 7.35759 8.99705 7.24832 8.83315 7.13124C8.70046 7.04539 8.54436 6.92051 8.39607 6.79563C8.38046 6.78783 8.32583 6.741 8.26339 6.67856C8.00583 6.46002 7.71705 6.17905 7.45949 5.86685C7.43607 5.85124 7.39705 5.79661 7.34241 5.72637C7.26437 5.63271 7.13168 5.47661 7.01461 5.2971C6.92095 5.18002 6.81168 5.00832 6.71022 4.83661C6.58534 4.62588 6.47607 4.41515 6.3668 4.19661C6.22354 3.88961 5.82061 3.79841 5.58106 4.03797L1.19217 8.42685C1.09071 8.52832 0.997048 8.72344 0.973633 8.85612L0.55217 11.8454C0.474121 12.3761 0.622414 12.8756 0.950219 13.2112C1.23119 13.4844 1.62144 13.6327 2.0429 13.6327C2.13656 13.6327 2.23022 13.6249 2.32388 13.6093L5.32095 13.1878C5.46144 13.1644 5.65656 13.0708 5.75022 12.9693L10.1463 8.57317C10.3811 8.3384 10.2929 7.93447 9.98827 7.80246Z" fill="white"/>
</g>
</svg>
