<svg width="17" height="16" viewBox="0 0 17 16" fill="none" xmlns="http://www.w3.org/2000/svg">
<g id="vuesax/outline/edit-2">
<g id="edit-2">
<path id="Vector" d="M3.9244 13.0132C3.49232 13.0132 3.08857 12.8732 2.79815 12.6132C2.42982 12.2865 2.25273 11.7932 2.31648 11.2599L2.57857 9.09987C2.62815 8.6932 2.89023 8.1532 3.19482 7.85987L9.01023 2.06654C10.4623 0.61987 11.9782 0.57987 13.5152 1.94654C15.0523 3.3132 15.0948 4.73987 13.6427 6.18654L7.82732 11.9799C7.52982 12.2799 6.97732 12.5599 6.54523 12.6265L4.2644 12.9932C4.14398 12.9999 4.03773 13.0132 3.9244 13.0132ZM11.284 1.93987C10.7386 1.93987 10.264 2.25987 9.78232 2.73987L3.9669 8.53987C3.82523 8.67987 3.66232 9.0132 3.63398 9.20654L3.3719 11.3665C3.34357 11.5865 3.40023 11.7665 3.52773 11.8799C3.65523 11.9932 3.84648 12.0332 4.08023 11.9999L6.36107 11.6332C6.56648 11.5999 6.90648 11.4265 7.04815 11.2865L12.8636 5.4932C13.7419 4.6132 14.0607 3.79987 12.7786 2.66654C12.2119 2.1532 11.7232 1.93987 11.284 1.93987Z" fill="#23292E"/>
<path id="Vector_2" d="M12.2826 7.30022C12.2685 7.30022 12.2472 7.30022 12.2331 7.30022C10.0231 7.09356 8.24515 5.51356 7.90515 3.44689C7.86265 3.17356 8.06098 2.92023 8.3514 2.87356C8.64181 2.83356 8.91098 3.02023 8.96056 3.29356C9.22973 4.90689 10.6181 6.14689 12.3464 6.30689C12.6368 6.33356 12.8493 6.58022 12.821 6.85356C12.7856 7.10689 12.5518 7.30022 12.2826 7.30022Z" fill="#23292E"/>
<path id="Vector_3" d="M14.875 15.1665H2.125C1.83458 15.1665 1.59375 14.9398 1.59375 14.6665C1.59375 14.3932 1.83458 14.1665 2.125 14.1665H14.875C15.1654 14.1665 15.4062 14.3932 15.4062 14.6665C15.4062 14.9398 15.1654 15.1665 14.875 15.1665Z" fill="#23292E"/>
</g>
</g>
</svg>
