<svg width="20" height="20" viewBox="0 0 20 20" fill="none" xmlns="http://www.w3.org/2000/svg">
<g id="vuesax/linear/information">
<g id="information">
<path id="Vector" d="M8.9584 2.0416C9.54173 1.54993 10.4834 1.54993 11.0501 2.0416L12.3667 3.1666C12.6167 3.37493 13.0917 3.54994 13.4251 3.54994H14.8417C15.7251 3.54994 16.4501 4.27493 16.4501 5.15827V6.57493C16.4501 6.90827 16.6251 7.37493 16.8334 7.62493L17.9584 8.9416C18.4501 9.52494 18.4501 10.4666 17.9584 11.0333L16.8334 12.3499C16.6251 12.5999 16.4501 13.0666 16.4501 13.3999V14.8166C16.4501 15.6999 15.7251 16.4249 14.8417 16.4249H13.4251C13.0917 16.4249 12.6251 16.5999 12.3751 16.8083L11.0584 17.9333C10.4751 18.4249 9.5334 18.4249 8.96673 17.9333L7.65007 16.8083C7.40007 16.5999 6.92507 16.4249 6.60007 16.4249H5.14173C4.2584 16.4249 3.5334 15.6999 3.5334 14.8166V13.3916C3.5334 13.0666 3.36673 12.5916 3.1584 12.3499L2.0334 11.0249C1.55007 10.4499 1.55007 9.5166 2.0334 8.9416L3.1584 7.6166C3.36673 7.3666 3.5334 6.89993 3.5334 6.57493V5.1666C3.5334 4.28327 4.2584 3.55827 5.14173 3.55827H6.5834C6.91673 3.55827 7.3834 3.38327 7.6334 3.17493L8.9584 2.0416Z" stroke="#98A5AF" stroke-width="1.5" stroke-linecap="round" stroke-linejoin="round"/>
<path id="Vector_2" d="M10 6.7749V10.7999" stroke="#98A5AF" stroke-width="1.5" stroke-linecap="round" stroke-linejoin="round"/>
<path id="Vector_3" d="M9.99561 13.3333H10.0031" stroke="#98A5AF" stroke-width="2" stroke-linecap="round" stroke-linejoin="round"/>
</g>
</g>
</svg>
