<svg width="20" height="20" viewBox="0 0 20 20" fill="none" xmlns="http://www.w3.org/2000/svg">
<g id="vuesax/bulk/information">
<g id="information">
<path id="Vector" opacity="0.4" d="M8.9584 2.04166C9.54173 1.55 10.4834 1.55 11.0501 2.04166L12.3667 3.16666C12.6167 3.375 13.0917 3.55 13.4251 3.55H14.8417C15.7251 3.55 16.4501 4.275 16.4501 5.15833V6.575C16.4501 6.90833 16.6251 7.375 16.8334 7.625L17.9584 8.94166C18.4501 9.525 18.4501 10.4667 17.9584 11.0333L16.8334 12.35C16.6251 12.6 16.4501 13.0667 16.4501 13.4V14.8167C16.4501 15.7 15.7251 16.425 14.8417 16.425H13.4251C13.0917 16.425 12.6251 16.6 12.3751 16.8083L11.0584 17.9333C10.4751 18.425 9.5334 18.425 8.96673 17.9333L7.65006 16.8083C7.40006 16.6 6.92506 16.425 6.60006 16.425H5.14173C4.2584 16.425 3.5334 15.7 3.5334 14.8167V13.3917C3.5334 13.0667 3.36673 12.5917 3.1584 12.35L2.0334 11.025C1.55007 10.45 1.55007 9.51666 2.0334 8.94166L3.1584 7.61666C3.36673 7.36666 3.5334 6.9 3.5334 6.575V5.16666C3.5334 4.28333 4.2584 3.55833 5.14173 3.55833H6.5834C6.91673 3.55833 7.3834 3.38333 7.6334 3.175L8.9584 2.04166Z" fill="#981D1D"/>
<path id="Vector_2" d="M9.99984 14.0583C9.5415 14.0583 9.1665 13.6833 9.1665 13.225C9.1665 12.7667 9.53317 12.3917 9.99984 12.3917C10.4582 12.3917 10.8332 12.7667 10.8332 13.225C10.8332 13.6833 10.4665 14.0583 9.99984 14.0583Z" fill="#981D1D"/>
<path id="Vector_3" d="M10 11.4334C9.65833 11.4334 9.375 11.15 9.375 10.8084V6.77502C9.375 6.43336 9.65833 6.15002 10 6.15002C10.3417 6.15002 10.625 6.43336 10.625 6.77502V10.8C10.625 11.15 10.35 11.4334 10 11.4334Z" fill="#981D1D"/>
</g>
</g>
</svg>
