<svg width="61" height="60" viewBox="0 0 61 60" fill="none" xmlns="http://www.w3.org/2000/svg">
<g id="vuesax/bulk/judge">
<g id="judge">
<g id="Group">
<path id="Vector" d="M51.8497 47.6C51.4747 47.975 50.9997 48.15 50.5247 48.15C50.0497 48.15 49.5747 47.975 49.1997 47.6L36.8247 35.225L38.1497 33.9L39.4747 32.575L51.8497 44.95C52.5747 45.675 52.5747 46.875 51.8497 47.6Z" fill="#D0D4D9"/>
</g>
<path id="Vector_2" opacity="0.4" d="M16.6749 23.2L31.1749 37.7C32.1499 38.675 32.1499 40.25 31.1749 41.225L28.9249 43.5C26.8999 45.5 23.6999 45.5 21.6999 43.5L10.8499 32.65C8.8749 30.675 8.8749 27.45 10.8499 25.45L13.1249 23.175C14.0999 22.225 15.6999 22.225 16.6749 23.2Z" fill="#D0D4D9"/>
<path id="Vector_3" d="M46.9753 25.475L37.4503 34.975C36.4503 35.975 34.8503 35.975 33.8503 34.975L19.4253 20.55C18.4253 19.55 18.4253 17.95 19.4253 16.95L28.9503 7.42499C30.9253 5.44999 34.1503 5.44999 36.1503 7.42499L47.0003 18.275C48.9503 20.25 48.9503 23.45 46.9753 25.475Z" fill="#D0D4D9"/>
<g id="Group_2">
<path id="Vector_4" d="M20.5 54.375H5.5C4.475 54.375 3.625 53.525 3.625 52.5C3.625 51.475 4.475 50.625 5.5 50.625H20.5C21.525 50.625 22.375 51.475 22.375 52.5C22.375 53.525 21.525 54.375 20.5 54.375Z" fill="#D0D4D9"/>
</g>
</g>
</g>
</svg>
