<svg width="20" height="20" viewBox="0 0 20 20" fill="none" xmlns="http://www.w3.org/2000/svg">
<g id="vuesax/bulk/layer">
<g id="layer">
<path id="Vector" d="M16.1414 4.07461L11.2581 1.89961C10.5414 1.58294 9.45807 1.58294 8.74141 1.89961L3.85807 4.07461C2.62474 4.62461 2.44141 5.37461 2.44141 5.77461C2.44141 6.17461 2.62474 6.92461 3.85807 7.47461L8.74141 9.64961C9.09974 9.80794 9.54974 9.89128 9.99974 9.89128C10.4497 9.89128 10.8997 9.80794 11.2581 9.64961L16.1414 7.47461C17.3747 6.92461 17.5581 6.17461 17.5581 5.77461C17.5581 5.37461 17.3831 4.62461 16.1414 4.07461Z" fill="white"/>
<path id="Vector_2" opacity="0.4" d="M10.0003 14.1993C9.68359 14.1993 9.36693 14.1327 9.07526 14.0077L3.45859 11.5077C2.60026 11.1243 1.93359 10.0993 1.93359 9.15768C1.93359 8.81602 2.20859 8.54102 2.55026 8.54102C2.89193 8.54102 3.16693 8.81602 3.16693 9.15768C3.16693 9.60768 3.54193 10.191 3.95859 10.3743L9.57526 12.8743C9.84193 12.991 10.1503 12.991 10.4169 12.8743L16.0336 10.3743C16.4503 10.191 16.8253 9.61602 16.8253 9.15768C16.8253 8.81602 17.1003 8.54102 17.4419 8.54102C17.7836 8.54102 18.0586 8.81602 18.0586 9.15768C18.0586 10.091 17.3919 11.1243 16.5336 11.5077L10.9169 14.0077C10.6336 14.1327 10.3169 14.1993 10.0003 14.1993Z" fill="white"/>
<path id="Vector_3" opacity="0.4" d="M10.0003 18.3341C9.68359 18.3341 9.36693 18.2674 9.07526 18.1424L3.45859 15.6424C2.53359 15.2341 1.93359 14.3091 1.93359 13.2924C1.93359 12.9508 2.20859 12.6758 2.55026 12.6758C2.89193 12.6758 3.16693 12.9508 3.16693 13.2924C3.16693 13.8174 3.47526 14.2924 3.95859 14.5091L9.57526 17.0091C9.84193 17.1258 10.1503 17.1258 10.4169 17.0091L16.0336 14.5091C16.5086 14.3008 16.8253 13.8174 16.8253 13.2924C16.8253 12.9508 17.1003 12.6758 17.4419 12.6758C17.7836 12.6758 18.0586 12.9508 18.0586 13.2924C18.0586 14.3091 17.4586 15.2258 16.5336 15.6424L10.9169 18.1424C10.6336 18.2674 10.3169 18.3341 10.0003 18.3341Z" fill="white"/>
</g>
</g>
</svg>
