<svg width="20" height="20" viewBox="0 0 20 20" fill="none" xmlns="http://www.w3.org/2000/svg">
<g id="vuesax/linear/layer">
<g id="layer">
<path id="Vector" d="M10.8416 2.43359L15.7583 4.61693C17.1749 5.24193 17.1749 6.27526 15.7583 6.90026L10.8416 9.08359C10.2833 9.33359 9.3666 9.33359 8.80827 9.08359L3.8916 6.90026C2.47493 6.27526 2.47493 5.24193 3.8916 4.61693L8.80827 2.43359C9.3666 2.18359 10.2833 2.18359 10.8416 2.43359Z" stroke="white" stroke-width="1.25" stroke-linecap="round" stroke-linejoin="round"/>
<path id="Vector_2" d="M2.5 9.16602C2.5 9.86602 3.025 10.6743 3.66667 10.9577L9.325 13.4743C9.75833 13.666 10.25 13.666 10.675 13.4743L16.3333 10.9577C16.975 10.6743 17.5 9.86602 17.5 9.16602" stroke="white" stroke-width="1.25" stroke-linecap="round" stroke-linejoin="round"/>
<path id="Vector_3" d="M2.5 13.334C2.5 14.109 2.95833 14.809 3.66667 15.1257L9.325 17.6423C9.75833 17.834 10.25 17.834 10.675 17.6423L16.3333 15.1257C17.0417 14.809 17.5 14.109 17.5 13.334" stroke="white" stroke-width="1.25" stroke-linecap="round" stroke-linejoin="round"/>
</g>
</g>
</svg>
