<svg width="24" height="24" viewBox="0 0 24 24" fill="none" xmlns="http://www.w3.org/2000/svg">
<g id="Log">
<path id="Union" fill-rule="evenodd" clip-rule="evenodd" d="M23.2 12C23.2 18.1856 18.1856 23.2 12 23.2C5.81441 23.2 0.8 18.1856 0.8 12C0.8 5.81441 5.81441 0.8 12 0.8C14.1979 0.8 16.248 1.43311 17.9777 2.52692C16.9081 3.47135 16.4763 4.8121 16.4003 5.67912C16.2723 5.87112 16.2403 10.5058 16.2403 12.7991C16.2925 16.2391 13.6536 17.4391 12.0803 17.5191C8.80026 17.4391 8.05359 14.4258 8.08026 12.7991V5.67912C8.14426 5.03912 8.96026 4.87912 9.36026 4.87912V4.71912H5.60026V4.87912C6.56026 4.87912 6.85359 5.41246 6.88026 5.67912V12.7991C6.68826 15.2311 8.02693 16.6925 8.72026 17.1191C11.4083 18.9751 14.3203 17.9191 15.3603 17.1191C16.8323 16.2871 17.2003 14.0525 17.2003 13.0391V5.67912C17.3015 4.36318 17.798 3.45418 18.4454 2.83934C21.3214 4.86657 23.2 8.21389 23.2 12ZM19.1105 2.33257C22.076 4.51739 24 8.03401 24 12C24 18.6274 18.6274 24 12 24C5.37258 24 0 18.6274 0 12C0 5.37258 5.37258 0 12 0C14.471 0 16.7676 0.746881 18.6763 2.02721C19.4184 1.60414 20.3767 1.35755 21.6003 1.43912V1.67912C20.9514 1.65368 19.9785 1.80547 19.1105 2.33257Z" fill="#981D1D"/>
</g>
</svg>
