<svg width="40" height="40" viewBox="0 0 40 40" fill="none" xmlns="http://www.w3.org/2000/svg">
<g id="Logo">
<path id="Union" fill-rule="evenodd" clip-rule="evenodd" d="M38.6667 20C38.6667 30.3093 30.3093 38.6667 20 38.6667C9.69068 38.6667 1.33333 30.3093 1.33333 20C1.33333 9.69068 9.69068 1.33333 20 1.33333C23.6637 1.33333 27.0808 2.3888 29.964 4.21224C28.1806 5.78634 27.4608 8.02145 27.334 9.46673C27.1207 9.78673 27.0673 17.5112 27.0673 21.3334C27.1543 27.0667 22.7562 29.0667 20.134 29.2001C14.6673 29.0667 13.4229 24.0445 13.4673 21.3334V9.46673C13.574 8.40006 14.934 8.13339 15.6007 8.13339V7.86673H9.33398V8.13339C10.934 8.13339 11.4229 9.02228 11.4673 9.46673V21.3334C11.1473 25.3867 13.3784 27.8223 14.534 28.5334C19.014 31.6267 23.8673 29.8667 25.6007 28.5334C28.054 27.1467 28.6673 23.4223 28.6673 21.7334V9.46673C28.8361 7.27293 29.6639 5.7577 30.7434 4.73296C35.5361 8.11175 38.6667 13.6903 38.6667 20ZM31.8521 3.88851C36.7939 7.52995 40 13.3906 40 20C40 31.0457 31.0457 40 20 40C8.9543 40 0 31.0457 0 20C0 8.9543 8.9543 0 20 0C24.119 0 27.9471 1.24515 31.1285 3.37957C32.3652 2.67484 33.9619 2.26415 36.0007 2.40006V2.80006C34.9195 2.75766 33.2984 3.01052 31.8521 3.88851Z" fill="#981D1D"/>
</g>
</svg>
