<svg width="13" height="13" viewBox="0 0 13 13" fill="none" xmlns="http://www.w3.org/2000/svg">
<g id="milleage">
<path id="Vector" d="M11.929 6.79482C11.9307 7.48976 11.7903 8.17812 11.5159 8.82017C11.2416 9.46221 10.8388 10.0452 10.3307 10.5355C10.0852 10.775 9.75561 10.9159 9.40766 10.9301C9.05971 10.9444 8.71901 10.8309 8.45356 10.6124L7.9861 10.2206C7.9408 10.1827 7.90366 10.1365 7.87679 10.0847C7.84992 10.0328 7.83384 9.97636 7.82949 9.91849C7.82069 9.80163 7.86014 9.68616 7.93917 9.59749C7.9783 9.55359 8.02597 9.51758 8.07945 9.49153C8.13294 9.46549 8.19119 9.44991 8.25089 9.44568C8.37145 9.43715 8.49057 9.4754 8.58205 9.552L9.04997 9.94418C9.14009 10.0187 9.2563 10.0568 9.37459 10.0506C9.49288 10.0445 9.6042 9.99451 9.68556 9.91106C10.12 9.48474 10.4609 8.97751 10.6875 8.41999C10.9142 7.86246 11.0219 7.26621 11.0043 6.6672C10.9867 6.06819 10.844 5.47886 10.585 4.93477C10.3259 4.39068 9.95576 3.90311 9.49693 3.50149C9.01808 3.08266 8.45213 2.76825 7.83726 2.57946C7.22239 2.39067 6.57291 2.3319 5.93261 2.4071C5.0805 2.50281 4.27362 2.82994 3.60495 3.35079C2.93628 3.87164 2.43303 4.56501 2.15318 5.35102C1.87333 6.13702 1.82827 6.98368 2.0232 7.79342C2.21812 8.60317 2.6451 9.34306 3.25493 9.92784C3.33691 10.0055 3.44608 10.0504 3.56068 10.0535C3.67528 10.0566 3.78687 10.0177 3.87321 9.94462L4.34113 9.552C4.4326 9.4754 4.55173 9.43715 4.67229 9.44568C4.79285 9.45421 4.90498 9.50882 4.98401 9.59749C5.06304 9.68616 5.10249 9.80163 5.09369 9.91849C5.08489 10.0354 5.02856 10.144 4.93708 10.2206L4.46961 10.6128C4.20898 10.83 3.87385 10.9446 3.53031 10.9341C3.18678 10.9235 2.8598 10.7886 2.61387 10.5559C1.97418 9.94164 1.50089 9.18378 1.23603 8.34962C0.971175 7.51545 0.922952 6.63079 1.09565 5.77421C1.26834 4.91764 1.65661 4.11566 2.22596 3.43952C2.79531 2.76338 3.52812 2.234 4.3593 1.8984C5.19048 1.56281 6.09431 1.43139 6.99049 1.51582C7.88667 1.60025 8.74746 1.89791 9.49642 2.38237C10.2454 2.86683 10.8593 3.52308 11.2837 4.29284C11.7081 5.0626 11.9297 5.92204 11.929 6.79482ZM9.06182 4.89885C9.14481 4.81555 9.19074 4.70399 9.1897 4.5882C9.18866 4.4724 9.14074 4.36163 9.05627 4.27975C8.97179 4.19786 8.85751 4.15141 8.73805 4.15041C8.61859 4.1494 8.5035 4.19392 8.41757 4.27437L6.6976 5.94157C6.50384 5.89122 6.29835 5.90426 6.11301 5.97866C5.92768 6.05306 5.77285 6.18467 5.67254 6.35306C5.57223 6.52145 5.53205 6.71722 5.55823 6.91001C5.58441 7.10279 5.67548 7.28182 5.81733 7.41931C5.95918 7.55681 6.14387 7.64509 6.34276 7.67047C6.54164 7.69584 6.74361 7.6569 6.91733 7.55967C7.09105 7.46243 7.22682 7.31235 7.30358 7.1327C7.38033 6.95305 7.39378 6.75387 7.34185 6.56605L9.06182 4.89885Z" fill="#008DD5"/>
</g>
</svg>
