<svg width="35" height="18" viewBox="0 0 35 18" fill="none" xmlns="http://www.w3.org/2000/svg">
<g id="Money">
<g id="Vector">
<path d="M0.251456 16.5483L0.241067 1.64309C0.24057 0.936372 0.830142 0.36132 1.55754 0.358954L33.5939 0.256864C34.3204 0.254563 34.9095 0.824591 34.91 1.5305L34.9204 16.4357C34.9209 17.1424 34.3313 17.7174 33.6039 17.7198L1.56751 17.8219C0.840994 17.8242 0.251955 17.2542 0.251456 16.5483Z" fill="#CEE2CC"/>
<path d="M34.9177 16.4549L34.9074 1.56544C34.9069 0.860275 34.3185 0.290847 33.5927 0.293148L32.3473 0.297111L32.3574 14.7956C32.3579 15.5016 31.7689 16.076 31.0423 16.0784L0.285118 16.1764L0.2854 16.5674C0.285897 17.2726 0.874313 17.842 1.60006 17.8397L33.6026 17.7377C34.3293 17.7354 34.9181 17.1609 34.9177 16.4549Z" fill="#81AD7D"/>
<path d="M23.1675 13.1473C25.5049 10.1408 24.8947 5.86773 21.8047 3.60309C18.7147 1.33845 14.3149 1.93984 11.9775 4.94632C9.64017 7.95281 10.2503 12.2259 13.3404 14.4905C16.4304 16.7552 20.8302 16.1538 23.1675 13.1473Z" fill="#1E8814"/>
<path d="M5.90731 0.242188C5.90905 3.29702 3.36403 5.78195 0.222895 5.79233L0.22041 1.53625C0.220018 0.831931 0.807996 0.259041 1.53376 0.256679L5.90731 0.242188Z" fill="#1E8814"/>
<path d="M0.315684 12.1911C3.47446 12.1807 6.0367 14.652 6.03844 17.711L1.63749 17.7255C0.909263 17.7279 0.318551 17.1569 0.31811 16.4502L0.315684 12.1911Z" fill="#1E8814"/>
<path d="M29.2537 17.8396C29.2519 14.7848 31.797 12.2998 34.9381 12.2894L34.9406 16.5455C34.941 17.2498 34.353 17.8227 33.6272 17.8251L29.2537 17.8396Z" fill="#1E8814"/>
<path d="M34.8451 5.89129C31.6863 5.90176 29.1241 3.43038 29.1224 0.371378L33.5233 0.356872C34.2516 0.354465 34.8423 0.92547 34.8427 1.63217L34.8451 5.89129Z" fill="#1E8814"/>
<path d="M27.8427 9.55884C27.6876 9.45831 27.5856 9.28664 27.5857 9.09147C27.5858 8.78056 27.845 8.52771 28.1647 8.52667L31.4434 8.51637C31.7629 8.51542 32.0221 8.76664 32.0219 9.07755C32.0218 9.38845 31.7626 9.6413 31.4429 9.64234L28.1642 9.65264C28.0453 9.65304 27.9346 9.61843 27.8427 9.55884Z" fill="#1E8814"/>
<path d="M3.39673 9.46839C3.24166 9.36786 3.13971 9.19623 3.13977 9.00102C3.13991 8.69011 3.3991 8.43726 3.71871 8.43629L6.99735 8.42594C7.31694 8.42486 7.5759 8.67613 7.57588 8.98712C7.57574 9.29802 7.31655 9.55087 6.99694 9.55185L3.7183 9.56219C3.59927 9.56255 3.48866 9.52798 3.39673 9.46839Z" fill="#1E8814"/>
<path d="M18.127 12.984C19.2959 12.7407 19.9763 11.7948 20.126 10.9103C20.3215 9.75518 19.6964 8.75125 18.533 8.35259C18.3931 8.30463 18.2503 8.25458 18.1076 8.20256L18.0982 5.91352C18.4315 6.00531 18.6296 6.16678 18.649 6.18299C18.8852 6.38946 19.2468 6.37283 19.4606 6.14556C19.6758 5.91692 19.6593 5.56125 19.4238 5.35107C19.3939 5.32451 18.9002 4.8946 18.0935 4.7632L18.0917 4.31927C18.0903 4.00874 17.8309 3.75734 17.5117 3.75767C17.1928 3.75802 16.9352 4.01001 16.9364 4.32056L16.9384 4.80481C16.8738 4.81953 16.8086 4.83577 16.7421 4.85519C15.9758 5.07968 15.405 5.71698 15.2527 6.51845C15.1133 7.25124 15.3589 7.95863 15.8937 8.36463C16.165 8.57054 16.5003 8.75953 16.9554 8.95791L16.9674 11.9035C16.5886 11.8694 16.3334 11.7695 15.91 11.5012C15.6422 11.3316 15.2846 11.4049 15.1112 11.6651C14.9389 11.9232 15.0129 12.2684 15.2758 12.4394L15.2817 12.4432C15.9423 12.8617 16.3985 12.9944 16.972 13.0313L16.974 13.5287C16.9748 13.7234 17.0771 13.8949 17.232 13.9956C17.3241 14.0556 17.4349 14.0904 17.5539 14.0904C17.8728 14.09 18.1304 13.838 18.1292 13.5275L18.127 12.984ZM16.6026 7.47886C16.4131 7.33498 16.3291 7.03957 16.3887 6.72627C16.4398 6.45748 16.612 6.1383 16.9434 5.98347L16.9504 7.70048C16.8211 7.62906 16.7032 7.55527 16.6026 7.47886ZM18.1522 9.41317C19.0786 9.73088 19.0246 10.4971 18.9862 10.7244C18.914 11.1509 18.6209 11.6029 18.1223 11.8074L18.1125 9.39946C18.1259 9.40402 18.1385 9.40845 18.1522 9.41317Z" fill="#CEE2CC"/>
</g>
</g>
</svg>
