<svg width="14" height="14" viewBox="0 0 14 14" fill="none" xmlns="http://www.w3.org/2000/svg">
<g id="vuesax/linear/money-recive">
<g id="Group">
<path id="Vector" d="M5.54102 8.02097C5.54102 8.5868 5.97852 9.0418 6.51519 9.0418H7.61184C8.07851 9.0418 8.45768 8.64513 8.45768 8.1493C8.45768 7.61847 8.22435 7.42597 7.88019 7.30347L6.12435 6.69097C5.78018 6.56847 5.54685 6.3818 5.54685 5.84514C5.54685 5.35514 5.92601 4.95264 6.39268 4.95264H7.48935C8.02601 4.95264 8.46352 5.40764 8.46352 5.97347" stroke="#F18F01" stroke-width="0.875" stroke-linecap="round" stroke-linejoin="round"/>
<path id="Vector_2" d="M6.99902 4.375V9.625" stroke="#F18F01" stroke-width="0.875" stroke-linecap="round" stroke-linejoin="round"/>
</g>
<path id="Vector_3" d="M12.8337 7.00008C12.8337 10.2201 10.2203 12.8334 7.00033 12.8334C3.78033 12.8334 1.16699 10.2201 1.16699 7.00008C1.16699 3.78008 3.78033 1.16675 7.00033 1.16675" stroke="#F18F01" stroke-width="0.875" stroke-linecap="round" stroke-linejoin="round"/>
<path id="Vector_4" d="M9.91699 1.75V4.08333H12.2503" stroke="#F18F01" stroke-width="0.875" stroke-linecap="round" stroke-linejoin="round"/>
<path id="Vector_5" d="M12.8337 1.16675L9.91699 4.08341" stroke="#F18F01" stroke-width="0.875" stroke-linecap="round" stroke-linejoin="round"/>
</g>
</svg>
