<svg width="6" height="20" viewBox="0 0 6 20" fill="none" xmlns="http://www.w3.org/2000/svg">
<path id="menu / more_vertical" d="M3.00033 19.3327C1.71166 19.3327 0.666992 18.288 0.666992 16.9993C0.666992 15.7107 1.71166 14.666 3.00033 14.666C4.28899 14.666 5.33366 15.7107 5.33366 16.9993C5.33366 18.288 4.28899 19.3327 3.00033 19.3327ZM3.00033 12.3327C1.71166 12.3327 0.666992 11.288 0.666992 9.99935C0.666992 8.71068 1.71166 7.66602 3.00033 7.66602C4.28899 7.66602 5.33366 8.71068 5.33366 9.99935C5.33366 10.6182 5.08783 11.2117 4.65024 11.6493C4.21266 12.0869 3.61916 12.3327 3.00033 12.3327ZM3.00033 5.33268C1.71166 5.33268 0.666992 4.28801 0.666992 2.99935C0.666992 1.71068 1.71166 0.666016 3.00033 0.666016C4.28899 0.666016 5.33366 1.71068 5.33366 2.99935C5.33366 3.61819 5.08783 4.21168 4.65024 4.64927C4.21266 5.08685 3.61916 5.33268 3.00033 5.33268Z" fill="#23292E"/>
</svg>
