<svg width="20" height="20" viewBox="0 0 20 20" fill="none" xmlns="http://www.w3.org/2000/svg">
<g id="vuesax/linear/notification">
<g id="notification">
<path id="Vector" d="M10.0165 2.42505C7.25816 2.42505 5.0165 4.66672 5.0165 7.42505V9.83338C5.0165 10.3417 4.79983 11.1167 4.5415 11.55L3.58316 13.1417C2.9915 14.125 3.39983 15.2167 4.48316 15.5834C8.07483 16.7834 11.9498 16.7834 15.5415 15.5834C16.5498 15.25 16.9915 14.0584 16.4415 13.1417L15.4832 11.55C15.2332 11.1167 15.0165 10.3417 15.0165 9.83338V7.42505C15.0165 4.67505 12.7665 2.42505 10.0165 2.42505Z" stroke="#23292E" stroke-width="1.5" stroke-miterlimit="10" stroke-linecap="round"/>
<path id="Vector_2" d="M11.5584 2.66694C11.3001 2.59194 11.0334 2.53361 10.7584 2.50028C9.95843 2.40028 9.19176 2.45861 8.4751 2.66694C8.71676 2.05028 9.31676 1.61694 10.0168 1.61694C10.7168 1.61694 11.3168 2.05028 11.5584 2.66694Z" stroke="#23292E" stroke-width="1.5" stroke-miterlimit="10" stroke-linecap="round" stroke-linejoin="round"/>
<path id="Vector_3" d="M12.5161 15.8831C12.5161 17.2581 11.3911 18.3831 10.0161 18.3831C9.33278 18.3831 8.69945 18.0997 8.24945 17.6497C7.79945 17.1997 7.51611 16.5664 7.51611 15.8831" stroke="#23292E" stroke-width="1.5" stroke-miterlimit="10"/>
</g>
</g>
</svg>
