<svg width="20" height="20" viewBox="0 0 20 20" fill="none" xmlns="http://www.w3.org/2000/svg">
<g id="vuesax/linear/notification">
<g id="notification">
<path id="Vector" d="M10.0164 2.42505C7.25804 2.42505 5.01637 4.66672 5.01637 7.42505V9.83338C5.01637 10.3417 4.79971 11.1167 4.54137 11.55L3.58304 13.1417C2.99137 14.125 3.39971 15.2167 4.48304 15.5834C8.07471 16.7834 11.9497 16.7834 15.5414 15.5834C16.5497 15.25 16.9914 14.0584 16.4414 13.1417L15.483 11.55C15.233 11.1167 15.0164 10.3417 15.0164 9.83338V7.42505C15.0164 4.67505 12.7664 2.42505 10.0164 2.42505Z" stroke="#981D1D" stroke-width="1.5" stroke-miterlimit="10" stroke-linecap="round"/>
<path id="Vector_2" d="M14.5833 9.16667C16.4243 9.16667 17.9167 7.67428 17.9167 5.83333C17.9167 3.99238 16.4243 2.5 14.5833 2.5C12.7424 2.5 11.25 3.99238 11.25 5.83333C11.25 7.67428 12.7424 9.16667 14.5833 9.16667Z" fill="#981D1D"/>
<path id="Vector_3" d="M11.5583 2.66694C11.3 2.59194 11.0333 2.53361 10.7583 2.50028C9.95831 2.40028 9.19164 2.45861 8.47498 2.66694C8.71664 2.05028 9.31664 1.61694 10.0166 1.61694C10.7166 1.61694 11.3166 2.05028 11.5583 2.66694Z" stroke="#981D1D" stroke-width="1.5" stroke-miterlimit="10" stroke-linecap="round" stroke-linejoin="round"/>
<path id="Vector_4" d="M12.5162 15.8831C12.5162 17.2581 11.3912 18.3831 10.0162 18.3831C9.3329 18.3831 8.69957 18.0997 8.24957 17.6497C7.79957 17.1997 7.51624 16.5664 7.51624 15.8831" stroke="#981D1D" stroke-width="1.5" stroke-miterlimit="10"/>
</g>
</g>
</svg>
