<svg width="153" height="152" viewBox="0 0 153 152" fill="none" xmlns="http://www.w3.org/2000/svg">
<g id="vuesax/twotone/icon">
<g id="icon">
<path id="Vector" opacity="0.4" d="M95.5001 12.6665V75.9998C95.5001 82.9665 89.8001 88.6665 82.8334 88.6665H13.1667V48.2598C17.7901 53.7698 24.8836 57.1898 32.7369 56.9998C39.1336 56.8732 44.8968 54.4032 49.2034 50.2865C51.1668 48.6399 52.8136 46.5498 54.0802 44.2698C56.3602 40.4064 57.6267 35.8463 57.5001 31.0963C57.3101 23.6863 54.0168 17.1632 48.8868 12.6665H95.5001Z" stroke="#D0D4D9" stroke-width="9.5" stroke-linecap="round" stroke-linejoin="round"/>
<path id="Vector_2" d="M139.833 88.6665V107.667C139.833 118.18 131.347 126.667 120.833 126.667H114.5C114.5 119.7 108.8 114 101.833 114C94.8667 114 89.1667 119.7 89.1667 126.667H63.8334C63.8334 119.7 58.1334 114 51.1667 114C44.2001 114 38.5001 119.7 38.5001 126.667H32.1667C21.6534 126.667 13.1667 118.18 13.1667 107.667V88.6665H82.8334C89.8001 88.6665 95.5001 82.9665 95.5001 75.9998V31.6665H107.154C111.714 31.6665 115.894 34.1366 118.174 38.0632L129.003 56.9998H120.833C117.35 56.9998 114.5 59.8498 114.5 63.3332V82.3332C114.5 85.8165 117.35 88.6665 120.833 88.6665H139.833Z" stroke="#D0D4D9" stroke-width="9.5" stroke-linecap="round" stroke-linejoin="round"/>
<path id="Vector_3" d="M51.1667 139.333C58.1623 139.333 63.8333 133.662 63.8333 126.667C63.8333 119.671 58.1623 114 51.1667 114C44.1711 114 38.5 119.671 38.5 126.667C38.5 133.662 44.1711 139.333 51.1667 139.333Z" stroke="#D0D4D9" stroke-width="9.5" stroke-linecap="round" stroke-linejoin="round"/>
<path id="Vector_4" d="M101.833 139.333C108.829 139.333 114.5 133.662 114.5 126.667C114.5 119.671 108.829 114 101.833 114C94.8378 114 89.1667 119.671 89.1667 126.667C89.1667 133.662 94.8378 139.333 101.833 139.333Z" stroke="#D0D4D9" stroke-width="9.5" stroke-linecap="round" stroke-linejoin="round"/>
<path id="Vector_5" d="M139.833 76V88.6667H120.833C117.35 88.6667 114.5 85.8167 114.5 82.3333V63.3333C114.5 59.85 117.35 57 120.833 57H129.003L139.833 76Z" stroke="#D0D4D9" stroke-width="9.5" stroke-linecap="round" stroke-linejoin="round"/>
<g id="Group">
<path id="Vector_6" d="M57.4999 31.6668C57.4999 36.4168 56.1698 40.9135 53.8265 44.7135C52.4965 46.9935 50.7866 49.0202 48.8233 50.6668C44.39 54.6568 38.5633 57.0002 32.1666 57.0002C22.9199 57.0002 14.8767 52.0601 10.5067 44.7135C8.16336 40.9135 6.83325 36.4168 6.83325 31.6668C6.83325 23.6868 10.5066 16.5302 16.3333 11.9069C20.7033 8.42353 26.2133 6.3335 32.1666 6.3335C46.1633 6.3335 57.4999 17.6702 57.4999 31.6668Z" stroke="#D0D4D9" stroke-width="9.5" stroke-miterlimit="10" stroke-linecap="round" stroke-linejoin="round"/>
<g id="Group_2">
<g id="Group 510" opacity="0.4">
<path id="Vector_7" d="M38.9384 38.2534L25.5752 24.8901" stroke="#D0D4D9" stroke-width="9.5" stroke-miterlimit="10" stroke-linecap="round" stroke-linejoin="round"/>
<path id="Vector_8" d="M38.7529 25.0786L25.3896 38.4419" stroke="#D0D4D9" stroke-width="9.5" stroke-miterlimit="10" stroke-linecap="round" stroke-linejoin="round"/>
</g>
</g>
</g>
</g>
</g>
</svg>
