<svg width="153" height="152" viewBox="0 0 153 152" fill="none" xmlns="http://www.w3.org/2000/svg">
<g id="vuesax/twotone/truck-fast">
<g id="truck-fast">
<path id="Vector" opacity="0.4" d="M76.5 88.6665H82.8333C89.8 88.6665 95.5 82.9665 95.5 75.9998V12.6665H38.5C29 12.6665 20.7034 17.9231 16.3967 25.6498" stroke="#D0D4D9" stroke-width="9.5" stroke-linecap="round" stroke-linejoin="round"/>
<path id="Vector_2" d="M13.1667 107.667C13.1667 118.18 21.6533 126.667 32.1667 126.667H38.5C38.5 119.7 44.2 114 51.1667 114C58.1333 114 63.8333 119.7 63.8333 126.667H89.1667C89.1667 119.7 94.8667 114 101.833 114C108.8 114 114.5 119.7 114.5 126.667H120.833C131.347 126.667 139.833 118.18 139.833 107.667V88.6665H120.833C117.35 88.6665 114.5 85.8165 114.5 82.3332V63.3332C114.5 59.8498 117.35 56.9998 120.833 56.9998H129.003L118.173 38.0632C115.893 34.1366 111.714 31.6665 107.154 31.6665H95.5V75.9998C95.5 82.9665 89.8 88.6665 82.8333 88.6665H76.5" stroke="#D0D4D9" stroke-width="9.5" stroke-linecap="round" stroke-linejoin="round"/>
<path id="Vector_3" d="M51.1667 139.333C58.1623 139.333 63.8333 133.662 63.8333 126.667C63.8333 119.671 58.1623 114 51.1667 114C44.1711 114 38.5 119.671 38.5 126.667C38.5 133.662 44.1711 139.333 51.1667 139.333Z" stroke="#D0D4D9" stroke-width="9.5" stroke-linecap="round" stroke-linejoin="round"/>
<path id="Vector_4" d="M101.833 139.333C108.829 139.333 114.5 133.662 114.5 126.667C114.5 119.671 108.829 114 101.833 114C94.8377 114 89.1667 119.671 89.1667 126.667C89.1667 133.662 94.8377 139.333 101.833 139.333Z" stroke="#D0D4D9" stroke-width="9.5" stroke-linecap="round" stroke-linejoin="round"/>
<path id="Vector_5" d="M139.833 76V88.6667H120.833C117.35 88.6667 114.5 85.8167 114.5 82.3333V63.3333C114.5 59.85 117.35 57 120.833 57H129.003L139.833 76Z" stroke="#D0D4D9" stroke-width="9.5" stroke-linecap="round" stroke-linejoin="round"/>
<path id="Vector_6" d="M13.1667 50.6665H51.1667" stroke="#D0D4D9" stroke-width="9.5" stroke-linecap="round" stroke-linejoin="round"/>
<path id="Vector_7" d="M13.1667 69.6665H38.5" stroke="#D0D4D9" stroke-width="9.5" stroke-linecap="round" stroke-linejoin="round"/>
<path id="Vector_8" d="M13.1667 88.6665H25.8333" stroke="#D0D4D9" stroke-width="9.5" stroke-linecap="round" stroke-linejoin="round"/>
</g>
</g>
</svg>
