<svg width="153" height="152" viewBox="0 0 153 152" fill="none" xmlns="http://www.w3.org/2000/svg">
<g id="vuesax/twotone/truck-tick">
<g id="truck-tick">
<path id="Vector" opacity="0.4" d="M95.5 12.6665V75.9998C95.5 82.9665 89.8 88.6665 82.8333 88.6665H13.1666V48.2598C17.79 53.7698 24.8835 57.1898 32.7368 56.9998C39.1335 56.8732 44.8966 54.4032 49.2033 50.2865C51.1666 48.6399 52.8134 46.5498 54.0801 44.2698C56.3601 40.4064 57.6266 35.8463 57.5 31.0963C57.31 23.6863 54.0167 17.1632 48.8867 12.6665H95.5Z" stroke="#D0D4D9" stroke-width="9.5" stroke-linecap="round" stroke-linejoin="round"/>
<path id="Vector_2" d="M139.833 88.6665V107.667C139.833 118.18 131.347 126.667 120.833 126.667H114.5C114.5 119.7 108.8 114 101.833 114C94.8666 114 89.1666 119.7 89.1666 126.667H63.8333C63.8333 119.7 58.1333 114 51.1666 114C44.2 114 38.5 119.7 38.5 126.667H32.1666C21.6533 126.667 13.1666 118.18 13.1666 107.667V88.6665H82.8333C89.8 88.6665 95.5 82.9665 95.5 75.9998V31.6665H107.153C111.713 31.6665 115.893 34.1366 118.173 38.0632L129.003 56.9998H120.833C117.35 56.9998 114.5 59.8498 114.5 63.3332V82.3332C114.5 85.8165 117.35 88.6665 120.833 88.6665H139.833Z" stroke="#D0D4D9" stroke-width="9.5" stroke-linecap="round" stroke-linejoin="round"/>
<path id="Vector_3" d="M51.1667 139.333C58.1623 139.333 63.8333 133.662 63.8333 126.667C63.8333 119.671 58.1623 114 51.1667 114C44.1711 114 38.5 119.671 38.5 126.667C38.5 133.662 44.1711 139.333 51.1667 139.333Z" stroke="#D0D4D9" stroke-width="9.5" stroke-linecap="round" stroke-linejoin="round"/>
<path id="Vector_4" d="M101.833 139.333C108.829 139.333 114.5 133.662 114.5 126.667C114.5 119.671 108.829 114 101.833 114C94.8377 114 89.1666 119.671 89.1666 126.667C89.1666 133.662 94.8377 139.333 101.833 139.333Z" stroke="#D0D4D9" stroke-width="9.5" stroke-linecap="round" stroke-linejoin="round"/>
<path id="Vector_5" d="M139.833 76V88.6667H120.833C117.35 88.6667 114.5 85.8167 114.5 82.3333V63.3333C114.5 59.85 117.35 57 120.833 57H129.003L139.833 76Z" stroke="#D0D4D9" stroke-width="9.5" stroke-linecap="round" stroke-linejoin="round"/>
<g id="Group">
<path id="Vector_6" d="M57.4995 31.0965C57.6262 35.8465 56.3596 40.4066 54.0796 44.27C52.813 46.55 51.1662 48.6401 49.2029 50.2867C44.8962 54.4034 39.133 56.8734 32.7363 57C24.883 57.19 17.7895 53.77 13.1662 48.26C12.2795 47.31 11.5195 46.2334 10.8229 45.1567C8.35286 41.4201 6.9595 36.9869 6.83283 32.2369C6.64283 24.2569 10.1895 16.9733 15.8895 12.2233C20.1961 8.67666 25.6427 6.46004 31.596 6.33338C38.246 6.20671 44.3263 8.61338 48.8863 12.6667C54.0163 17.1634 57.3095 23.6865 57.4995 31.0965Z" stroke="#D0D4D9" stroke-width="9.5" stroke-miterlimit="10" stroke-linecap="round" stroke-linejoin="round"/>
<path id="Vector_7" opacity="0.4" d="M22.2863 31.8568L28.683 37.9365L41.9194 25.1431" stroke="#D0D4D9" stroke-width="9.5" stroke-linecap="round" stroke-linejoin="round"/>
</g>
</g>
</g>
</svg>
