<svg width="14" height="14" viewBox="0 0 14 14" fill="none" xmlns="http://www.w3.org/2000/svg">
<g id="vuesax/twotone/people">
<g id="people">
<path id="Vector" d="M10.4984 4.17675C10.4634 4.17092 10.4226 4.17092 10.3876 4.17675C9.58258 4.14758 8.94092 3.48842 8.94092 2.67175C8.94092 1.83758 9.61175 1.16675 10.4459 1.16675C11.2801 1.16675 11.9509 1.84342 11.9509 2.67175C11.9451 3.48842 11.3034 4.14758 10.4984 4.17675Z" stroke="#70B77E" stroke-width="0.875" stroke-linecap="round" stroke-linejoin="round"/>
<path id="Vector_2" d="M9.89787 8.42327C10.697 8.55743 11.5779 8.41743 12.1962 8.00326C13.0187 7.45493 13.0187 6.5566 12.1962 6.00827C11.572 5.5941 10.6795 5.45409 9.88037 5.59409" stroke="#70B77E" stroke-width="0.875" stroke-linecap="round" stroke-linejoin="round"/>
<path id="Vector_3" d="M3.48131 4.17675C3.51631 4.17092 3.55714 4.17092 3.59214 4.17675C4.39714 4.14758 5.03881 3.48842 5.03881 2.67175C5.03881 1.83758 4.36798 1.16675 3.53381 1.16675C2.69964 1.16675 2.02881 1.84342 2.02881 2.67175C2.03464 3.48842 2.67631 4.14758 3.48131 4.17675Z" stroke="#70B77E" stroke-width="0.875" stroke-linecap="round" stroke-linejoin="round"/>
<path id="Vector_4" d="M4.08171 8.42327C3.28254 8.55743 2.40171 8.41743 1.78338 8.00326C0.960879 7.45493 0.960879 6.5566 1.78338 6.00827C2.40755 5.5941 3.30004 5.45409 4.09921 5.59409" stroke="#70B77E" stroke-width="0.875" stroke-linecap="round" stroke-linejoin="round"/>
<g id="Group">
<path id="Vector_5" d="M6.99988 8.53417C6.96488 8.52834 6.92405 8.52834 6.88905 8.53417C6.08405 8.50501 5.44238 7.84584 5.44238 7.02917C5.44238 6.195 6.11322 5.52417 6.94738 5.52417C7.78155 5.52417 8.45238 6.20084 8.45238 7.02917C8.44655 7.84584 7.80488 8.51084 6.99988 8.53417Z" stroke="#70B77E" stroke-width="0.875" stroke-linecap="round" stroke-linejoin="round"/>
<path id="Vector_6" d="M5.30242 10.3717C4.47992 10.92 4.47992 11.8184 5.30242 12.3667C6.23576 12.9909 7.76409 12.9909 8.69742 12.3667C9.51992 11.8184 9.51992 10.92 8.69742 10.3717C7.76992 9.75338 6.23576 9.75338 5.30242 10.3717Z" stroke="#70B77E" stroke-width="0.875" stroke-linecap="round" stroke-linejoin="round"/>
</g>
</g>
</g>
</svg>
