<svg width="14" height="14" viewBox="0 0 14 14" fill="none" xmlns="http://www.w3.org/2000/svg">
<g id="vuesax/twotone/people">
<g id="people">
<path id="Vector" d="M10.4989 4.17675C10.4639 4.17092 10.4231 4.17092 10.3881 4.17675C9.58307 4.14758 8.94141 3.48842 8.94141 2.67175C8.94141 1.83758 9.61224 1.16675 10.4464 1.16675C11.2806 1.16675 11.9514 1.84342 11.9514 2.67175C11.9456 3.48842 11.3039 4.14758 10.4989 4.17675Z" stroke="#70B77E" stroke-width="0.875" stroke-linecap="round" stroke-linejoin="round"/>
<path id="Vector_2" d="M9.89738 8.42351C10.6966 8.55768 11.5774 8.41768 12.1957 8.00351C13.0182 7.45518 13.0182 6.55684 12.1957 6.00851C11.5716 5.59434 10.679 5.45434 9.87988 5.59434" stroke="#70B77E" stroke-width="0.875" stroke-linecap="round" stroke-linejoin="round"/>
<path id="Vector_3" d="M3.48082 4.17675C3.51582 4.17092 3.55665 4.17092 3.59165 4.17675C4.39665 4.14758 5.03832 3.48842 5.03832 2.67175C5.03832 1.83758 4.36749 1.16675 3.53332 1.16675C2.69915 1.16675 2.02832 1.84342 2.02832 2.67175C2.03415 3.48842 2.67582 4.14758 3.48082 4.17675Z" stroke="#70B77E" stroke-width="0.875" stroke-linecap="round" stroke-linejoin="round"/>
<path id="Vector_4" d="M4.0822 8.42351C3.28303 8.55768 2.4022 8.41768 1.78387 8.00351C0.961367 7.45518 0.961367 6.55684 1.78387 6.00851C2.40803 5.59434 3.30053 5.45434 4.0997 5.59434" stroke="#70B77E" stroke-width="0.875" stroke-linecap="round" stroke-linejoin="round"/>
<g id="Group">
<path id="Vector_5" d="M6.99988 8.53442C6.96488 8.52858 6.92405 8.52858 6.88905 8.53442C6.08405 8.50525 5.44238 7.84608 5.44238 7.02942C5.44238 6.19525 6.11322 5.52441 6.94738 5.52441C7.78155 5.52441 8.45238 6.20108 8.45238 7.02942C8.44655 7.84608 7.80488 8.51108 6.99988 8.53442Z" stroke="#70B77E" stroke-width="0.875" stroke-linecap="round" stroke-linejoin="round"/>
<path id="Vector_6" d="M5.30242 10.372C4.47992 10.9203 4.47992 11.8186 5.30242 12.367C6.23576 12.9911 7.76409 12.9911 8.69742 12.367C9.51992 11.8186 9.51992 10.9203 8.69742 10.372C7.76992 9.75362 6.23576 9.75362 5.30242 10.372Z" stroke="#70B77E" stroke-width="0.875" stroke-linecap="round" stroke-linejoin="round"/>
</g>
</g>
</g>
</svg>
