<svg width="20" height="20" viewBox="0 0 20 20" fill="none" xmlns="http://www.w3.org/2000/svg">
<g id="vuesax/bulk/people">
<g id="people">
<path id="Vector" opacity="0.4" d="M14.6079 6.47631C14.5495 6.46797 14.4912 6.46797 14.4329 6.47631C13.1412 6.43464 12.1162 5.3763 12.1162 4.0763C12.1162 2.7513 13.1912 1.66797 14.5245 1.66797C15.8495 1.66797 16.9329 2.74297 16.9329 4.0763C16.9245 5.3763 15.8995 6.43464 14.6079 6.47631Z" fill="white"/>
<path id="Vector_2" opacity="0.4" d="M17.3247 12.2503C16.3913 12.8753 15.083 13.1087 13.8747 12.9503C14.1913 12.267 14.358 11.5087 14.3663 10.7087C14.3663 9.87534 14.183 9.08367 13.833 8.392C15.0663 8.22534 16.3747 8.45866 17.3163 9.08366C18.633 9.95033 18.633 11.3753 17.3247 12.2503Z" fill="white"/>
<path id="Vector_3" opacity="0.4" d="M5.36699 6.47631C5.42532 6.46797 5.48366 6.46797 5.54199 6.47631C6.83366 6.43464 7.85866 5.3763 7.85866 4.0763C7.85866 2.7513 6.78366 1.66797 5.45033 1.66797C4.12532 1.66797 3.04199 2.74297 3.04199 4.0763C3.05033 5.3763 4.07532 6.43464 5.36699 6.47631Z" fill="white"/>
<path id="Vector_4" opacity="0.4" d="M5.45794 10.7088C5.45794 11.5172 5.63294 12.2838 5.94961 12.9755C4.77461 13.1005 3.54961 12.8505 2.64961 12.2588C1.33294 11.3838 1.33294 9.95882 2.64961 9.08382C3.54128 8.48382 4.79961 8.24216 5.98294 8.37549C5.64128 9.07549 5.45794 9.86716 5.45794 10.7088Z" fill="white"/>
<path id="Vector_5" d="M10.1 13.225C10.0333 13.2167 9.95833 13.2167 9.88333 13.225C8.35 13.175 7.125 11.9167 7.125 10.3667C7.125 8.78334 8.4 7.5 9.99167 7.5C11.575 7.5 12.8583 8.78334 12.8583 10.3667C12.8583 11.9167 11.6417 13.175 10.1 13.225Z" fill="white"/>
<path id="Vector_6" d="M7.39199 14.9492C6.13366 15.7909 6.13366 17.1742 7.39199 18.0076C8.82533 18.9659 11.1753 18.9659 12.6087 18.0076C13.867 17.1659 13.867 15.7826 12.6087 14.9492C11.1837 13.9909 8.83366 13.9909 7.39199 14.9492Z" fill="white"/>
</g>
</g>
</svg>
