<svg width="20" height="20" viewBox="0 0 20 20" fill="none" xmlns="http://www.w3.org/2000/svg">
<g id="vuesax/linear/people">
<g id="people">
<g id="Group">
<path id="Vector" d="M14.9994 5.96602C14.9494 5.95769 14.8911 5.95769 14.8411 5.96602C13.6911 5.92435 12.7744 4.98268 12.7744 3.81602C12.7744 2.62435 13.7327 1.66602 14.9244 1.66602C16.1161 1.66602 17.0744 2.63268 17.0744 3.81602C17.0661 4.98268 16.1494 5.92435 14.9994 5.96602Z" stroke="#98A5AF" stroke-width="1.25" stroke-linecap="round" stroke-linejoin="round"/>
<path id="Vector_2" d="M14.1412 12.0328C15.2829 12.2245 16.5412 12.0245 17.4245 11.4328C18.5995 10.6495 18.5995 9.36615 17.4245 8.58282C16.5329 7.99115 15.2579 7.79115 14.1162 7.99115" stroke="#98A5AF" stroke-width="1.25" stroke-linecap="round" stroke-linejoin="round"/>
</g>
<g id="Group_2">
<path id="Vector_3" d="M4.97539 5.96602C5.02539 5.95769 5.08372 5.95769 5.13372 5.96602C6.28372 5.92435 7.20039 4.98268 7.20039 3.81602C7.20039 2.62435 6.24206 1.66602 5.05039 1.66602C3.85873 1.66602 2.90039 2.63268 2.90039 3.81602C2.90872 4.98268 3.82539 5.92435 4.97539 5.96602Z" stroke="#98A5AF" stroke-width="1.25" stroke-linecap="round" stroke-linejoin="round"/>
<path id="Vector_4" d="M5.83353 12.0328C4.69186 12.2245 3.43353 12.0245 2.5502 11.4328C1.3752 10.6495 1.3752 9.36615 2.5502 8.58282C3.44186 7.99115 4.71686 7.79115 5.85853 7.99115" stroke="#98A5AF" stroke-width="1.25" stroke-linecap="round" stroke-linejoin="round"/>
</g>
<g id="Group_3">
<path id="Vector_5" d="M10.0004 12.1926C9.95039 12.1842 9.89206 12.1842 9.84206 12.1926C8.69206 12.1509 7.77539 11.2092 7.77539 10.0426C7.77539 8.85091 8.73372 7.89258 9.92539 7.89258C11.1171 7.89258 12.0754 8.85925 12.0754 10.0426C12.0671 11.2092 11.1504 12.1592 10.0004 12.1926Z" stroke="#98A5AF" stroke-width="1.25" stroke-linecap="round" stroke-linejoin="round"/>
<path id="Vector_6" d="M7.57461 14.8168C6.39961 15.6001 6.39961 16.8835 7.57461 17.6668C8.90794 18.5585 11.0913 18.5585 12.4246 17.6668C13.5996 16.8835 13.5996 15.6001 12.4246 14.8168C11.0996 13.9335 8.90794 13.9335 7.57461 14.8168Z" stroke="#98A5AF" stroke-width="1.25" stroke-linecap="round" stroke-linejoin="round"/>
</g>
</g>
</g>
</svg>
