<svg width="34" height="34" viewBox="0 0 34 34" fill="none" xmlns="http://www.w3.org/2000/svg">
<circle cx="17" cy="17" r="17" fill="black" fill-opacity="0.16"/>
<circle cx="16.9992" cy="17.0002" r="6.3" fill="#981D1D" stroke="white" stroke-width="3"/>
<path d="M25 17C25 21.4183 21.4183 25 17 25C12.5817 25 9 21.4183 9 17C9 12.5817 12.5817 9 17 9C21.4183 9 25 12.5817 25 17ZM10.2291 17C10.2291 20.7395 13.2605 23.7709 17 23.7709C20.7395 23.7709 23.7709 20.7395 23.7709 17C23.7709 13.2605 20.7395 10.2291 17 10.2291C13.2605 10.2291 10.2291 13.2605 10.2291 17Z" fill="#981D1D"/>
</svg>
