<svg width="20" height="20" viewBox="0 0 20 20" fill="none" xmlns="http://www.w3.org/2000/svg">
<g id="vuesax/linear/profile-2user">
<g id="profile-2user">
<path id="Vector" d="M7.63314 9.05768C7.5498 9.04935 7.4498 9.04935 7.35814 9.05768C5.3748 8.99102 3.7998 7.36602 3.7998 5.36602C3.7998 3.32435 5.4498 1.66602 7.4998 1.66602C9.54147 1.66602 11.1998 3.32435 11.1998 5.36602C11.1915 7.36602 9.61647 8.99102 7.63314 9.05768Z" stroke="#98A5AF" stroke-width="1.5" stroke-linecap="round" stroke-linejoin="round"/>
<path id="Vector_2" d="M13.6752 3.33398C15.2919 3.33398 16.5919 4.64232 16.5919 6.25065C16.5919 7.82565 15.3419 9.10899 13.7836 9.16732C13.7169 9.15899 13.6419 9.15899 13.5669 9.16732" stroke="#98A5AF" stroke-width="1.5" stroke-linecap="round" stroke-linejoin="round"/>
<path id="Vector_3" d="M3.4666 12.134C1.44993 13.484 1.44993 15.684 3.4666 17.0257C5.75827 18.559 9.5166 18.559 11.8083 17.0257C13.8249 15.6757 13.8249 13.4757 11.8083 12.134C9.52494 10.609 5.7666 10.609 3.4666 12.134Z" stroke="#98A5AF" stroke-width="1.5" stroke-linecap="round" stroke-linejoin="round"/>
<path id="Vector_4" d="M15.2832 16.666C15.8832 16.541 16.4499 16.2993 16.9165 15.941C18.2165 14.966 18.2165 13.3577 16.9165 12.3827C16.4582 12.0327 15.8999 11.7993 15.3082 11.666" stroke="#98A5AF" stroke-width="1.5" stroke-linecap="round" stroke-linejoin="round"/>
</g>
</g>
</svg>
