<svg width="20" height="20" viewBox="0 0 20 20" fill="none" xmlns="http://www.w3.org/2000/svg">
<g id="vuesax/bulk/profile-2user">
<g id="profile-2user">
<path id="Vector" opacity="0.4" d="M7.50033 1.66602C5.31699 1.66602 3.54199 3.44102 3.54199 5.62435C3.54199 7.76602 5.21699 9.49935 7.40033 9.57435C7.46699 9.56602 7.53366 9.56602 7.58366 9.57435C7.60033 9.57435 7.60866 9.57435 7.62532 9.57435C7.63366 9.57435 7.63366 9.57435 7.64199 9.57435C9.77532 9.49935 11.4503 7.76602 11.4587 5.62435C11.4587 3.44102 9.68366 1.66602 7.50033 1.66602Z" fill="white"/>
<path id="Vector_2" d="M11.7338 11.7914C9.40879 10.2414 5.61712 10.2414 3.27546 11.7914C2.21712 12.4997 1.63379 13.4581 1.63379 14.4831C1.63379 15.5081 2.21712 16.4581 3.26712 17.1581C4.43379 17.9414 5.96712 18.3331 7.50046 18.3331C9.03379 18.3331 10.5671 17.9414 11.7338 17.1581C12.7838 16.4497 13.3671 15.4997 13.3671 14.4664C13.3588 13.4414 12.7838 12.4914 11.7338 11.7914Z" fill="white"/>
<path id="Vector_3" opacity="0.4" d="M16.6588 6.11708C16.7921 7.73374 15.6421 9.15041 14.0505 9.34208C14.0421 9.34208 14.0421 9.34208 14.0338 9.34208H14.0088C13.9588 9.34208 13.9088 9.34207 13.8671 9.35874C13.0588 9.40041 12.3171 9.14207 11.7588 8.66707C12.6171 7.90041 13.1088 6.75041 13.0088 5.50041C12.9505 4.82541 12.7171 4.20874 12.3671 3.68374C12.6838 3.52541 13.0505 3.42541 13.4255 3.39208C15.0588 3.25041 16.5171 4.46708 16.6588 6.11708Z" fill="white"/>
<path id="Vector_4" d="M18.3249 13.8247C18.2582 14.633 17.7415 15.333 16.8749 15.808C16.0415 16.2663 14.9915 16.483 13.9499 16.458C14.5499 15.9163 14.8999 15.2413 14.9665 14.5247C15.0499 13.4913 14.5582 12.4997 13.5749 11.708C13.0165 11.2663 12.3665 10.9163 11.6582 10.658C13.4999 10.1247 15.8165 10.483 17.2415 11.633C18.0082 12.2497 18.3999 13.0247 18.3249 13.8247Z" fill="white"/>
</g>
</g>
</svg>
