<svg width="90" height="90" viewBox="0 0 90 90" fill="none" xmlns="http://www.w3.org/2000/svg">
<g id="vuesax/bold/receive-square">
<g id="receive-square">
<path id="Vector" d="M60.7125 7.5H29.2875C15.6375 7.5 7.5 15.6375 7.5 29.2875V60.675C7.5 74.3625 15.6375 82.5 29.2875 82.5H60.675C74.325 82.5 82.4625 74.3625 82.4625 60.7125V29.2875C82.5 15.6375 74.3625 7.5 60.7125 7.5ZM31.7625 41.175C32.85 40.0875 34.65 40.0875 35.7375 41.175L42.1875 47.625V24.4125C42.1875 22.875 43.4625 21.6 45 21.6C46.5375 21.6 47.8125 22.875 47.8125 24.4125V47.625L54.2625 41.175C55.35 40.0875 57.15 40.0875 58.2375 41.175C59.325 42.2625 59.325 44.0625 58.2375 45.15L46.9875 56.4C46.725 56.6625 46.425 56.85 46.0875 57C45.75 57.15 45.375 57.225 45 57.225C44.625 57.225 44.2875 57.15 43.9125 57C43.575 56.85 43.275 56.6625 43.0125 56.4L31.7625 45.15C30.675 44.0625 30.675 42.3 31.7625 41.175ZM68.4 64.575C60.8625 67.0875 52.95 68.3625 45 68.3625C37.05 68.3625 29.1375 67.0875 21.6 64.575C20.1375 64.0875 19.35 62.475 19.8375 61.0125C20.325 59.55 21.9 58.725 23.4 59.25C37.35 63.9 52.6875 63.9 66.6375 59.25C68.1 58.7625 69.7125 59.55 70.2 61.0125C70.65 62.5125 69.8625 64.0875 68.4 64.575Z" fill="white"/>
</g>
</g>
</svg>
