<svg width="20" height="20" viewBox="0 0 20 20" fill="none" xmlns="http://www.w3.org/2000/svg">
<g id="vuesax/bulk/receive-square">
<g id="receive-square">
<path id="Vector" opacity="0.4" d="M13.4915 1.6665H6.5165C3.47484 1.6665 1.6665 3.47484 1.6665 6.50817V13.4832C1.6665 16.5165 3.47484 18.3248 6.50817 18.3248H13.4832C16.5165 18.3248 18.3248 16.5165 18.3248 13.4832V6.50817C18.3332 3.47484 16.5248 1.6665 13.4915 1.6665Z" fill="#981D1D"/>
<g id="Group">
<path id="Vector_2" d="M9.55869 12.5331C9.61702 12.5915 9.68369 12.6331 9.75869 12.6665C9.83369 12.6998 9.91702 12.7165 10.0004 12.7165C10.0837 12.7165 10.1587 12.6998 10.242 12.6665C10.317 12.6331 10.3837 12.5915 10.442 12.5331L12.942 10.0331C13.1837 9.79147 13.1837 9.39147 12.942 9.14981C12.7004 8.90814 12.3004 8.90814 12.0587 9.14981L10.6254 10.5831V5.4248C10.6254 5.08314 10.342 4.7998 10.0004 4.7998C9.65869 4.7998 9.37536 5.08314 9.37536 5.4248V10.5831L7.94202 9.14981C7.70036 8.90814 7.30036 8.90814 7.05869 9.14981C6.81702 9.39147 6.81702 9.79147 7.05869 10.0331L9.55869 12.5331Z" fill="#981D1D"/>
<path id="Vector_3" d="M15.5919 13.5663C15.4836 13.2413 15.1336 13.0663 14.8002 13.1746C11.7002 14.208 8.2919 14.208 5.1919 13.1746C4.8669 13.0663 4.50856 13.2413 4.40023 13.5663C4.2919 13.8913 4.4669 14.2496 4.7919 14.358C6.4669 14.9163 8.22523 15.1996 9.9919 15.1996C11.7586 15.1996 13.5169 14.9163 15.1919 14.358C15.5252 14.2413 15.7002 13.8913 15.5919 13.5663Z" fill="#981D1D"/>
</g>
</g>
</g>
</svg>
