<svg width="20" height="20" viewBox="0 0 20 20" fill="none" xmlns="http://www.w3.org/2000/svg">
<g id="vuesax/bulk/receive-square">
<g id="receive-square">
<path id="Vector" opacity="0.2" d="M13.4915 1.66667H6.5165C3.47484 1.66667 1.6665 3.475 1.6665 6.50834V13.4833C1.6665 16.5167 3.47484 18.325 6.50817 18.325H13.4832C16.5165 18.325 18.3248 16.5167 18.3248 13.4833V6.50834C18.3332 3.475 16.5248 1.66667 13.4915 1.66667Z" fill="#00A1FF"/>
<g id="Group">
<path id="Vector_2" d="M9.55869 12.5333C9.61702 12.5917 9.68369 12.6333 9.75869 12.6667C9.83369 12.7 9.91702 12.7167 10.0004 12.7167C10.0837 12.7167 10.1587 12.7 10.242 12.6667C10.317 12.6333 10.3837 12.5917 10.442 12.5333L12.942 10.0333C13.1837 9.79167 13.1837 9.39167 12.942 9.15C12.7004 8.90834 12.3004 8.90834 12.0587 9.15L10.6254 10.5833V5.425C10.6254 5.08334 10.342 4.8 10.0004 4.8C9.65869 4.8 9.37536 5.08334 9.37536 5.425V10.5833L7.94202 9.15C7.70036 8.90834 7.30036 8.90834 7.05869 9.15C6.81702 9.39167 6.81702 9.79167 7.05869 10.0333L9.55869 12.5333Z" fill="#00A1FF"/>
<path id="Vector_3" d="M15.5919 13.5667C15.4836 13.2417 15.1336 13.0667 14.8002 13.175C11.7002 14.2083 8.2919 14.2083 5.1919 13.175C4.8669 13.0667 4.50856 13.2417 4.40023 13.5667C4.2919 13.8917 4.4669 14.25 4.7919 14.3583C6.4669 14.9167 8.22523 15.2 9.9919 15.2C11.7586 15.2 13.5169 14.9167 15.1919 14.3583C15.5252 14.2417 15.7002 13.8917 15.5919 13.5667Z" fill="#00A1FF"/>
</g>
</g>
</g>
</svg>
