<svg width="28" height="28" viewBox="0 0 28 28" fill="none" xmlns="http://www.w3.org/2000/svg">
<g id="vuesax/bulk/refresh-2">
<g id="refresh-2">
<path id="Vector" opacity="0.4" d="M25.6668 9.11159V18.8766C25.6668 23.1233 23.1352 25.6549 18.8885 25.6549H9.11183C4.86516 25.6666 2.3335 23.1349 2.3335 18.8883V9.11159C2.3335 4.86492 4.86516 2.33325 9.11183 2.33325H18.8768C23.1352 2.33325 25.6668 4.86492 25.6668 9.11159Z" fill="#981D1D"/>
<path id="Vector_2" d="M14.0002 21.2916C11.9118 21.2916 10.2785 20.2532 9.17016 19.2266V20.0549C9.17016 20.5333 8.7735 20.9299 8.29516 20.9299C7.81683 20.9299 7.42016 20.5333 7.42016 20.0549V16.8466C7.42016 16.3682 7.81683 15.9716 8.29516 15.9716H11.1885C11.6668 15.9716 12.0635 16.3682 12.0635 16.8466C12.0635 17.3249 11.6668 17.7216 11.1885 17.7216H10.1385C11.0018 18.5849 12.3435 19.5416 14.0002 19.5416C17.0568 19.5416 19.5418 17.0566 19.5418 13.9999C19.5418 13.5216 19.9385 13.1249 20.4168 13.1249C20.8952 13.1249 21.2918 13.5216 21.2918 13.9999C21.2918 18.0249 18.0252 21.2916 14.0002 21.2916ZM7.5835 14.8749C7.10516 14.8749 6.7085 14.4783 6.7085 13.9999C6.7085 9.97492 9.97516 6.70825 14.0002 6.70825C16.5085 6.70825 18.3518 7.79325 19.5418 8.83159V7.94492C19.5418 7.46659 19.9385 7.06992 20.4168 7.06992C20.8952 7.06992 21.2918 7.46659 21.2918 7.94492V11.1416C21.2918 11.1766 21.2918 11.2116 21.2918 11.2349C21.2802 11.3633 21.2452 11.4799 21.1868 11.5849C21.1285 11.6899 21.0468 11.7833 20.9418 11.8649C20.8602 11.9233 20.7668 11.9699 20.6618 12.0049C20.5802 12.0283 20.4985 12.0399 20.4168 12.0399H17.5818C17.1035 12.0399 16.7068 11.6433 16.7068 11.1649C16.7068 10.6866 17.1035 10.2899 17.5818 10.2899H18.5502C17.6168 9.42658 16.1118 8.46992 14.0235 8.46992C10.9668 8.46992 8.48183 10.9549 8.48183 14.0116C8.4585 14.4783 8.06183 14.8749 7.5835 14.8749Z" fill="#981D1D"/>
</g>
</g>
</svg>
