<svg width="90" height="90" viewBox="0 0 90 90" fill="none" xmlns="http://www.w3.org/2000/svg">
<g id="vuesax/bold/refresh-circle">
<g id="refresh-circle">
<path id="Vector" d="M45 7.5C24.3 7.5 7.5 24.3 7.5 45C7.5 65.7 24.3 82.5 45 82.5C65.7 82.5 82.5 65.7 82.5 45C82.5 24.3 65.7 7.5 45 7.5ZM24.75 42.1125C25.3875 37.65 27.375 33.6375 30.4875 30.4875C37.9875 23.025 49.8 22.6125 57.825 29.1375V25.575C57.825 24.0375 59.1 22.7625 60.6375 22.7625C62.175 22.7625 63.45 24.0375 63.45 25.575V35.5875C63.45 37.125 62.175 38.4 60.6375 38.4H50.625C49.0875 38.4 47.8125 37.125 47.8125 35.5875C47.8125 34.05 49.0875 32.775 50.625 32.775H53.4375C47.625 28.725 39.6 29.2875 34.425 34.4625C32.175 36.7125 30.75 39.6375 30.2625 42.9C30.075 44.2875 28.875 45.3 27.4875 45.3C27.3375 45.3 27.225 45.3 27.075 45.2625C25.6125 45.075 24.525 43.65 24.75 42.1125ZM59.5125 59.5125C55.5 63.525 50.25 65.5125 45 65.5125C40.425 65.5125 35.8875 63.9 32.1375 60.8625V64.3875C32.1375 65.925 30.8625 67.2 29.325 67.2C27.7875 67.2 26.5125 65.925 26.5125 64.3875V54.375C26.5125 52.8375 27.7875 51.5625 29.325 51.5625H39.3375C40.875 51.5625 42.15 52.8375 42.15 54.375C42.15 55.9125 40.875 57.1875 39.3375 57.1875H36.525C42.3375 61.2375 50.3625 60.675 55.5375 55.5C57.7875 53.25 59.2125 50.325 59.7 47.0625C59.925 45.525 61.3125 44.4375 62.8875 44.6625C64.425 44.8875 65.475 46.3125 65.2875 47.85C64.6125 52.3875 62.625 56.4 59.5125 59.5125Z" fill="white"/>
</g>
</g>
</svg>
