<svg width="28" height="28" viewBox="0 0 28 28" fill="none" xmlns="http://www.w3.org/2000/svg">
<g id="vuesax/bulk/refresh-2">
<g id="refresh-2">
<path id="Vector" opacity="0.15" d="M25.6668 9.11166V18.8767C25.6668 23.1233 23.1352 25.655 18.8885 25.655H9.11183C4.86516 25.6667 2.3335 23.135 2.3335 18.8883V9.11166C2.3335 4.86499 4.86516 2.33333 9.11183 2.33333H18.8768C23.1352 2.33333 25.6668 4.86499 25.6668 9.11166Z" fill="#1EC10F"/>
<path id="Vector_2" d="M14.0002 21.2917C11.9118 21.2917 10.2785 20.2533 9.17016 19.2267V20.055C9.17016 20.5333 8.7735 20.93 8.29516 20.93C7.81683 20.93 7.42016 20.5333 7.42016 20.055V16.8467C7.42016 16.3683 7.81683 15.9717 8.29516 15.9717H11.1885C11.6668 15.9717 12.0635 16.3683 12.0635 16.8467C12.0635 17.325 11.6668 17.7217 11.1885 17.7217H10.1385C11.0018 18.585 12.3435 19.5417 14.0002 19.5417C17.0568 19.5417 19.5418 17.0567 19.5418 14C19.5418 13.5217 19.9385 13.125 20.4168 13.125C20.8952 13.125 21.2918 13.5217 21.2918 14C21.2918 18.025 18.0252 21.2917 14.0002 21.2917ZM7.5835 14.875C7.10516 14.875 6.7085 14.4783 6.7085 14C6.7085 9.97499 9.97516 6.70833 14.0002 6.70833C16.5085 6.70833 18.3518 7.79333 19.5418 8.83166V7.94499C19.5418 7.46666 19.9385 7.06999 20.4168 7.06999C20.8952 7.06999 21.2918 7.46666 21.2918 7.94499V11.1417C21.2918 11.1767 21.2918 11.2117 21.2918 11.235C21.2802 11.3633 21.2452 11.48 21.1868 11.585C21.1285 11.69 21.0468 11.7833 20.9418 11.865C20.8602 11.9233 20.7668 11.97 20.6618 12.005C20.5802 12.0283 20.4985 12.04 20.4168 12.04H17.5818C17.1035 12.04 16.7068 11.6433 16.7068 11.165C16.7068 10.6867 17.1035 10.29 17.5818 10.29H18.5502C17.6168 9.42666 16.1118 8.46999 14.0235 8.46999C10.9668 8.46999 8.48183 10.955 8.48183 14.0117C8.4585 14.4783 8.06183 14.875 7.5835 14.875Z" fill="#1EC10F"/>
</g>
</g>
</svg>
