<svg width="16" height="16" viewBox="0 0 16 16" fill="none" xmlns="http://www.w3.org/2000/svg">
<g id="vuesax/linear/routing-2">
<g id="routing-2">
<path id="Vector" d="M3.64681 6.00004C4.93547 6.00004 5.98014 4.95537 5.98014 3.66671C5.98014 2.37804 4.93547 1.33337 3.64681 1.33337C2.35815 1.33337 1.31348 2.37804 1.31348 3.66671C1.31348 4.95537 2.35815 6.00004 3.64681 6.00004Z" stroke="#981D1D"/>
<path id="Vector_2" d="M11.3135 10H13.3135C14.0468 10 14.6468 10.6 14.6468 11.3333V13.3333C14.6468 14.0667 14.0468 14.6667 13.3135 14.6667H11.3135C10.5802 14.6667 9.98016 14.0667 9.98016 13.3333V11.3333C9.98016 10.6 10.5802 10 11.3135 10Z" stroke="#981D1D"/>
<path id="Vector_3" d="M8.00013 3.33337H9.78679C11.0201 3.33337 11.5935 4.86004 10.6668 5.67337L5.34013 10.3334C4.41346 11.14 4.98679 12.6667 6.21346 12.6667H8.00013" stroke="#981D1D" stroke-linecap="round" stroke-linejoin="round"/>
<path id="Vector_4" d="M3.65748 3.66671H3.66518" stroke="#981D1D" stroke-width="1.33333" stroke-linecap="round" stroke-linejoin="round"/>
<path id="Vector_5" d="M12.3242 12.3333H12.3319" stroke="#981D1D" stroke-width="1.33333" stroke-linecap="round" stroke-linejoin="round"/>
</g>
</g>
</svg>
