<svg width="20" height="20" viewBox="0 0 20 20" fill="none" xmlns="http://www.w3.org/2000/svg">
<g id="vuesax/bulk/setting-2">
<g id="setting-2">
<path id="Vector" opacity="0.4" d="M1.66699 10.7319V9.26523C1.66699 8.39856 2.37533 7.6819 3.25033 7.6819C4.75866 7.6819 5.37533 6.61523 4.61699 5.3069C4.18366 4.5569 4.44199 3.5819 5.20033 3.14856L6.64199 2.32356C7.30033 1.9319 8.15033 2.16523 8.54199 2.82356L8.63366 2.9819C9.38366 4.29023 10.617 4.29023 11.3753 2.9819L11.467 2.82356C11.8587 2.16523 12.7087 1.9319 13.367 2.32356L14.8087 3.14856C15.567 3.5819 15.8253 4.5569 15.392 5.3069C14.6337 6.61523 15.2503 7.6819 16.7587 7.6819C17.6253 7.6819 18.342 8.39023 18.342 9.26523V10.7319C18.342 11.5986 17.6337 12.3152 16.7587 12.3152C15.2503 12.3152 14.6337 13.3819 15.392 14.6902C15.8253 15.4486 15.567 16.4152 14.8087 16.8486L13.367 17.6736C12.7087 18.0652 11.8587 17.8319 11.467 17.1736L11.3753 17.0152C10.6253 15.7069 9.39199 15.7069 8.63366 17.0152L8.54199 17.1736C8.15033 17.8319 7.30033 18.0652 6.64199 17.6736L5.20033 16.8486C4.44199 16.4152 4.18366 15.4402 4.61699 14.6902C5.37533 13.3819 4.75866 12.3152 3.25033 12.3152C2.37533 12.3152 1.66699 11.5986 1.66699 10.7319Z" fill="white"/>
<path id="Vector_2" d="M10.0003 12.7096C11.4961 12.7096 12.7087 11.4971 12.7087 10.0013C12.7087 8.50553 11.4961 7.29297 10.0003 7.29297C8.50455 7.29297 7.29199 8.50553 7.29199 10.0013C7.29199 11.4971 8.50455 12.7096 10.0003 12.7096Z" fill="white"/>
</g>
</g>
</svg>
