<svg width="20" height="20" viewBox="0 0 20 20" fill="none" xmlns="http://www.w3.org/2000/svg">
<g id="vuesax/bulk/sort">
<g id="sort">
<path id="Vector" opacity="0.4" d="M13.492 1.66602H6.50866C3.47533 1.66602 1.66699 3.47435 1.66699 6.50768V13.4827C1.66699 16.5243 3.47533 18.3327 6.50866 18.3327H13.4837C16.517 18.3327 18.3253 16.5243 18.3253 13.491V6.50768C18.3337 3.47435 16.5253 1.66602 13.492 1.66602Z" fill="white"/>
<path id="Vector_2" d="M15 7.08398H5C4.65833 7.08398 4.375 6.80065 4.375 6.45898C4.375 6.11732 4.65833 5.83398 5 5.83398H15C15.3417 5.83398 15.625 6.11732 15.625 6.45898C15.625 6.80065 15.3417 7.08398 15 7.08398Z" fill="white"/>
<path id="Vector_3" d="M13.3337 10.625H6.66699C6.32533 10.625 6.04199 10.3417 6.04199 10C6.04199 9.65833 6.32533 9.375 6.66699 9.375H13.3337C13.6753 9.375 13.9587 9.65833 13.9587 10C13.9587 10.3417 13.6753 10.625 13.3337 10.625Z" fill="white"/>
<path id="Vector_4" d="M11.1088 14.166H8.88379C8.54212 14.166 8.25879 13.8827 8.25879 13.541C8.25879 13.1993 8.54212 12.916 8.88379 12.916H11.1088C11.4505 12.916 11.7338 13.1993 11.7338 13.541C11.7338 13.8827 11.4588 14.166 11.1088 14.166Z" fill="white"/>
</g>
</g>
</svg>
