<svg width="16" height="16" viewBox="0 0 16 16" fill="none" xmlns="http://www.w3.org/2000/svg">
<g id="vuesax/linear/trash">
<g id="trash">
<path id="Vector" d="M14 3.98763C11.78 3.76763 9.54667 3.6543 7.32 3.6543C6 3.6543 4.68 3.72096 3.36 3.8543L2 3.98763" stroke="#D60A0A" stroke-linecap="round" stroke-linejoin="round"/>
<path id="Vector_2" d="M5.66699 3.31398L5.81366 2.44065C5.92033 1.80732 6.00033 1.33398 7.12699 1.33398H8.87366C10.0003 1.33398 10.087 1.83398 10.187 2.44732L10.3337 3.31398" stroke="#D60A0A" stroke-linecap="round" stroke-linejoin="round"/>
<path id="Vector_3" d="M12.5669 6.09375L12.1336 12.8071C12.0603 13.8537 12.0003 14.6671 10.1403 14.6671H5.86026C4.00026 14.6671 3.94026 13.8537 3.86693 12.8071L3.43359 6.09375" stroke="#D60A0A" stroke-linecap="round" stroke-linejoin="round"/>
<path id="Vector_4" d="M6.88672 11H9.10672" stroke="#D60A0A" stroke-linecap="round" stroke-linejoin="round"/>
<path id="Vector_5" d="M6.33301 8.33398H9.66634" stroke="#D60A0A" stroke-linecap="round" stroke-linejoin="round"/>
</g>
</g>
</svg>
