<svg width="101" height="100" viewBox="0 0 101 100" fill="none" xmlns="http://www.w3.org/2000/svg">
<g id="vuesax/twotone/truck-fast">
<g id="truck-fast">
<path id="Vector" opacity="0.4" d="M50.5001 58.3333H54.6668C59.2501 58.3333 63.0001 54.5833 63.0001 49.9999V8.33325H25.5001C19.2501 8.33325 13.7918 11.7915 10.9585 16.8749" stroke="#D0D4D9" stroke-width="6.25" stroke-linecap="round" stroke-linejoin="round"/>
<path id="Vector_2" d="M8.83325 70.8333C8.83325 77.7499 14.4166 83.3332 21.3333 83.3332H25.4999C25.4999 78.7499 29.2499 74.9999 33.8333 74.9999C38.4166 74.9999 42.1666 78.7499 42.1666 83.3332H58.8333C58.8333 78.7499 62.5832 74.9999 67.1666 74.9999C71.7499 74.9999 75.4999 78.7499 75.4999 83.3332H79.6666C86.5832 83.3332 92.1666 77.7499 92.1666 70.8333V58.3333H79.6666C77.3749 58.3333 75.4999 56.4583 75.4999 54.1666V41.6666C75.4999 39.3749 77.3749 37.4999 79.6666 37.4999H85.0415L77.9167 25.0416C76.4167 22.4583 73.6667 20.8333 70.6667 20.8333H62.9999V49.9999C62.9999 54.5833 59.2499 58.3333 54.6666 58.3333H50.4999" stroke="#D0D4D9" stroke-width="6.25" stroke-linecap="round" stroke-linejoin="round"/>
<path id="Vector_3" d="M33.8333 91.6667C38.4357 91.6667 42.1667 87.9357 42.1667 83.3333C42.1667 78.731 38.4357 75 33.8333 75C29.231 75 25.5 78.731 25.5 83.3333C25.5 87.9357 29.231 91.6667 33.8333 91.6667Z" stroke="#D0D4D9" stroke-width="6.25" stroke-linecap="round" stroke-linejoin="round"/>
<path id="Vector_4" d="M67.1666 91.6667C71.769 91.6667 75.4999 87.9357 75.4999 83.3333C75.4999 78.731 71.769 75 67.1666 75C62.5642 75 58.8333 78.731 58.8333 83.3333C58.8333 87.9357 62.5642 91.6667 67.1666 91.6667Z" stroke="#D0D4D9" stroke-width="6.25" stroke-linecap="round" stroke-linejoin="round"/>
<path id="Vector_5" d="M92.1667 50V58.3333H79.6667C77.375 58.3333 75.5 56.4583 75.5 54.1667V41.6667C75.5 39.375 77.375 37.5 79.6667 37.5H85.0416L92.1667 50Z" stroke="#D0D4D9" stroke-width="6.25" stroke-linecap="round" stroke-linejoin="round"/>
<path id="Vector_6" d="M8.83325 33.3333H33.8333" stroke="#D0D4D9" stroke-width="6.25" stroke-linecap="round" stroke-linejoin="round"/>
<path id="Vector_7" d="M8.83325 45.8333H25.4999" stroke="#D0D4D9" stroke-width="6.25" stroke-linecap="round" stroke-linejoin="round"/>
<path id="Vector_8" d="M8.83325 58.3333H17.1666" stroke="#D0D4D9" stroke-width="6.25" stroke-linecap="round" stroke-linejoin="round"/>
</g>
</g>
</svg>
