<svg width="100" height="100" viewBox="0 0 100 100" fill="none" xmlns="http://www.w3.org/2000/svg">
<g id="vuesax/twotone/user-search">
<g id="user-search">
<path id="Vector" d="M50.0001 49.9999C61.506 49.9999 70.8334 40.6725 70.8334 29.1666C70.8334 17.6607 61.506 8.33325 50.0001 8.33325C38.4941 8.33325 29.1667 17.6607 29.1667 29.1666C29.1667 40.6725 38.4941 49.9999 50.0001 49.9999Z" stroke="#D0D4D9" stroke-width="6.23438" stroke-linecap="round" stroke-linejoin="round"/>
<path id="Vector_2" opacity="0.4" d="M14.208 91.6667C14.208 75.5417 30.2498 62.5 49.9998 62.5" stroke="#D0D4D9" stroke-width="6.23438" stroke-linecap="round" stroke-linejoin="round"/>
<path id="Vector_3" d="M75.8334 89.1668C83.1972 89.1668 89.1668 83.1972 89.1668 75.8334C89.1668 68.4696 83.1972 62.5 75.8334 62.5C68.4696 62.5 62.5 68.4696 62.5 75.8334C62.5 83.1972 68.4696 89.1668 75.8334 89.1668Z" stroke="#D0D4D9" stroke-width="6.23438" stroke-linecap="round" stroke-linejoin="round"/>
<path id="Vector_4" d="M91.6672 91.6665L87.5005 87.4999" stroke="#D0D4D9" stroke-width="6.23438" stroke-linecap="round" stroke-linejoin="round"/>
</g>
</g>
</svg>
