<svg width="153" height="153" viewBox="0 0 153 153" fill="none" xmlns="http://www.w3.org/2000/svg">
<g id="vuesax/twotone/user-search">
<g id="user-search">
<path id="Vector" d="M76.5002 76.5013C93.9892 76.5013 108.167 62.3237 108.167 44.8346C108.167 27.3456 93.9892 13.168 76.5002 13.168C59.0111 13.168 44.8335 27.3456 44.8335 44.8346C44.8335 62.3237 59.0111 76.5013 76.5002 76.5013Z" stroke="#D0D4D9" stroke-width="9.47625" stroke-linecap="round" stroke-linejoin="round"/>
<path id="Vector_2" opacity="0.4" d="M22.0969 139.833C22.0969 115.323 46.4804 95.5 76.5004 95.5" stroke="#D0D4D9" stroke-width="9.47625" stroke-linecap="round" stroke-linejoin="round"/>
<path id="Vector_3" d="M115.767 136.033C126.96 136.033 136.033 126.96 136.033 115.767C136.033 104.574 126.96 95.5 115.767 95.5C104.574 95.5 95.5 104.574 95.5 115.767C95.5 126.96 104.574 136.033 115.767 136.033Z" stroke="#D0D4D9" stroke-width="9.47625" stroke-linecap="round" stroke-linejoin="round"/>
<path id="Vector_4" d="M139.833 139.833L133.5 133.5" stroke="#D0D4D9" stroke-width="9.47625" stroke-linecap="round" stroke-linejoin="round"/>
</g>
</g>
</svg>
