<svg width="10" height="10" viewBox="0 0 10 10" fill="none" xmlns="http://www.w3.org/2000/svg">
<path id="Vector" d="M5.86382 0.722089L6.74372 2.49644C6.86371 2.74343 7.18367 2.98035 7.45364 3.02572L9.04847 3.29288C10.0684 3.46426 10.3083 4.2103 9.57341 4.94625L8.33354 6.19636C8.12357 6.40807 8.00858 6.81637 8.07357 7.10873L8.42853 8.65625C8.7085 9.88115 8.06357 10.355 6.98869 9.71481L5.49386 8.82259C5.22389 8.66129 4.77894 8.66129 4.50397 8.82259L3.00913 9.71481C1.93925 10.355 1.28932 9.87611 1.56929 8.65625L1.92425 7.10873C1.98925 6.81637 1.87426 6.40807 1.66428 6.19636L0.424419 4.94625C-0.3055 4.2103 -0.0705258 3.46426 0.949361 3.29288L2.54419 3.02572C2.80916 2.98035 3.12912 2.74343 3.24911 2.49644L4.12901 0.722089C4.60896 -0.240696 5.38887 -0.240696 5.86382 0.722089Z" fill="#FFA118"/>
</svg>
